M48
;GenerationSoftware,Autodesk,EAGLE,9.6.2*%
;CreationDate,2022-11-07T17:53:58Z*%
FMAT,2
ICI,OFF
METRIC,TZ,000.000
T4C0.203
T3C0.305
T2C1.016
T1C3.048
%
G90
M71
T1
X2540Y28448
X48768Y22860
X54356Y2540
X2540Y22860
X22860Y2540
X48768Y2540
X54356Y22860
X74676Y2540
X2540Y2540
X74676Y22860
X80264Y22860
X28448Y22860
X28448Y2540
X22860Y22860
X22860Y48768
X80264Y2540
X100584Y22860
X100584Y2540
X106172Y22860
X106172Y2540
X126492Y22860
X126492Y2540
X132080Y22860
X132080Y2540
X152400Y22860
X152400Y2540
X2540Y48768
X28448Y54356
X22860Y28448
X28448Y48768
X28448Y28448
X48768Y48768
X48768Y28448
X54356Y48768
X54356Y28448
X74676Y48768
X74676Y28448
X80264Y48768
X80264Y28448
X100584Y48768
X100584Y28448
X106172Y48768
X106172Y28448
X126492Y48768
X126492Y28448
X132080Y48768
X132080Y28448
X152400Y48768
X152400Y28448
X2540Y74676
X2540Y54356
X22860Y74676
X22860Y54356
X28448Y74676
X152400Y80264
X48768Y74676
X48768Y54356
X54356Y74676
X54356Y54356
X74676Y74676
X74676Y54356
X80264Y74676
X80264Y54356
X100584Y74676
X100584Y54356
X106172Y74676
X106172Y54356
X126492Y74676
X126492Y54356
X132080Y74676
X132080Y54356
X152400Y74676
X152400Y54356
X2540Y100584
X2540Y80264
X22860Y100584
X22860Y80264
X28448Y100584
X28448Y80264
X48768Y100584
X48768Y80264
X54356Y100584
X54356Y80264
X74676Y100584
X74676Y80264
X80264Y100584
X80264Y80264
X100584Y100584
X100584Y80264
X106172Y100584
X106172Y80264
X126492Y100584
X126492Y80264
X132080Y100584
X132080Y80264
X152400Y100584
T2
X147320Y78994
X7620Y1270
X10160Y1270
X12700Y1270
X15240Y1270
X17780Y1270
X33528Y1270
X36068Y1270
X38608Y1270
X41148Y1270
X43688Y1270
X59436Y1270
X61976Y1270
X64516Y1270
X67056Y1270
X69596Y1270
X85344Y1270
X87884Y1270
X90424Y1270
X92964Y1270
X95504Y1270
X111252Y1270
X113792Y1270
X116332Y1270
X118872Y1270
X121412Y1270
X137160Y1270
X139700Y1270
X142240Y1270
X144780Y1270
X147320Y1270
X7620Y27178
X10160Y27178
X12700Y27178
X15240Y27178
X17780Y27178
X33528Y27178
X36068Y27178
X38608Y27178
X41148Y27178
X43688Y27178
X59436Y27178
X61976Y27178
X64516Y27178
X67056Y27178
X69596Y27178
X85344Y27178
X87884Y27178
X90424Y27178
X92964Y27178
X95504Y27178
X111252Y27178
X113792Y27178
X116332Y27178
X118872Y27178
X121412Y27178
X137160Y27178
X139700Y27178
X142240Y27178
X144780Y27178
X147320Y27178
X7620Y53086
X10160Y53086
X12700Y53086
X15240Y53086
X17780Y53086
X33528Y53086
X36068Y53086
X38608Y53086
X41148Y53086
X43688Y53086
X59436Y53086
X61976Y53086
X64516Y53086
X67056Y53086
X69596Y53086
X85344Y53086
X87884Y53086
X90424Y53086
X92964Y53086
X95504Y53086
X111252Y53086
X113792Y53086
X116332Y53086
X118872Y53086
X121412Y53086
X137160Y53086
X139700Y53086
X142240Y53086
X144780Y53086
X147320Y53086
X7620Y78994
X10160Y78994
X12700Y78994
X15240Y78994
X17780Y78994
X33528Y78994
X36068Y78994
X38608Y78994
X41148Y78994
X43688Y78994
X59436Y78994
X61976Y78994
X64516Y78994
X67056Y78994
X69596Y78994
X85344Y78994
X87884Y78994
X90424Y78994
X92964Y78994
X95504Y78994
X111252Y78994
X113792Y78994
X116332Y78994
X118872Y78994
X121412Y78994
X137160Y78994
X139700Y78994
X142240Y78994
X144780Y78994
T3
X86614Y15240
X92075Y9398
X102057Y19761
X85242Y13513
X84202Y12345
X92354Y5182
X91465Y16637
X94107Y16891
X92058Y12065
X90360Y3873
X120345Y9195
X123850Y10312
X117805Y5893
X108102Y10058
X110744Y11582
X112522Y10465
X113792Y14681
X125171Y8992
X127762Y6350
X122936Y2997
X104902Y6350
X104902Y12700
X104902Y19050
X109982Y24130
X122682Y24130
X116332Y24130
X115468Y4267
X116383Y5842
X109423Y10262
X111557Y4318
X122885Y6655
X119329Y3251
X117196Y9550
X114503Y3251
X112522Y5131
X116332Y14072
X116332Y11405
X114300Y6706
X113436Y5893
X121564Y7976
X123774Y17170
X121412Y19304
X123952Y19304
X126949Y11024
X117348Y17374
X120167Y17704
X111811Y14554
X107493Y14224
X110795Y16688
X121742Y12598
X116332Y6985
X107569Y13208
X109982Y19050
X112522Y15240
X117983Y9398
X127965Y19761
X111150Y13513
X110110Y12345
X118262Y5182
X117373Y16637
X120015Y16891
X117966Y12065
X116268Y3873
X146253Y9195
X149758Y10312
X143713Y5893
X134010Y10058
X136652Y11582
X138430Y10465
X139700Y14681
X151079Y8992
X153670Y6350
X148844Y2997
X130810Y6350
X130810Y12700
X130810Y19050
X135890Y24130
X148590Y24130
X142240Y24130
X141376Y4267
X142291Y5842
X135331Y10262
X137465Y4318
X148793Y6655
X145237Y3251
X143104Y9550
X140411Y3251
X138430Y5131
X142240Y14072
X142240Y11405
X140208Y6706
X139344Y5893
X147472Y7976
X149682Y17170
X147320Y19304
X149860Y19304
X152857Y11024
X143256Y17374
X146075Y17704
X137719Y14554
X133401Y14224
X136703Y16688
X147650Y12598
X142240Y6985
X133477Y13208
X135890Y19050
X138430Y15240
X143891Y9398
X153873Y19761
X137058Y13513
X136018Y12345
X144170Y5182
X143281Y16637
X145923Y16891
X143874Y12065
X142177Y3873
X16713Y35103
X20218Y36220
X14173Y31801
X4470Y35966
X7112Y37490
X8890Y36373
X10160Y40589
X21539Y34900
X24130Y32258
X19304Y28905
X1270Y32258
X1270Y38608
X1270Y44958
X6350Y50038
X19050Y50038
X12700Y50038
X11836Y30175
X12751Y31750
X5791Y36170
X7925Y30226
X19253Y32563
X15697Y29159
X13564Y35458
X10871Y29159
X8890Y31039
X12700Y39980
X12700Y37313
X10668Y32614
X9804Y31801
X17932Y33884
X20142Y43078
X17780Y45212
X20320Y45212
X23317Y36932
X13716Y43282
X16535Y43612
X8179Y40462
X3861Y40132
X7163Y42596
X18110Y38506
X12700Y32893
X3937Y39116
X6350Y44958
X8890Y41148
X14351Y35306
X24333Y45669
X7518Y39421
X6478Y38253
X14630Y31090
X13741Y42545
X16383Y42799
X14334Y37973
X12636Y29781
X42621Y35103
X46126Y36220
X40081Y31801
X30378Y35966
X33020Y37490
X34798Y36373
X36068Y40589
X47447Y34900
X50038Y32258
X45212Y28905
X27178Y32258
X27178Y38608
X27178Y44958
X32258Y50038
X44958Y50038
X38608Y50038
X37744Y30175
X38659Y31750
X31699Y36170
X33833Y30226
X45161Y32563
X41605Y29159
X39472Y35458
X36779Y29159
X34798Y31039
X38608Y39980
X38608Y37313
X36576Y32614
X35712Y31801
X43840Y33884
X46050Y43078
X43688Y45212
X46228Y45212
X49225Y36932
X39624Y43282
X42443Y43612
X34087Y40462
X29769Y40132
X33071Y42596
X44018Y38506
X38608Y32893
X29845Y39116
X32258Y44958
X34798Y41148
X40259Y35306
X50241Y45669
X33426Y39421
X32386Y38253
X40538Y31090
X39649Y42545
X42291Y42799
X40242Y37973
X38545Y29781
X68529Y35103
X72034Y36220
X65989Y31801
X56286Y35966
X58928Y37490
X60706Y36373
X61976Y40589
X73355Y34900
X75946Y32258
X71120Y28905
X53086Y32258
X53086Y38608
X53086Y44958
X58166Y50038
X70866Y50038
X64516Y50038
X63652Y30175
X64567Y31750
X57607Y36170
X59741Y30226
X71069Y32563
X67513Y29159
X65380Y35458
X62687Y29159
X60706Y31039
X64516Y39980
X64516Y37313
X62484Y32614
X61620Y31801
X69748Y33884
X71958Y43078
X69596Y45212
X72136Y45212
X75133Y36932
X65532Y43282
X68351Y43612
X59995Y40462
X55677Y40132
X58979Y42596
X69926Y38506
X64516Y32893
X55753Y39116
X58166Y44958
X60706Y41148
X66167Y35306
X76149Y45669
X59334Y39421
X58294Y38253
X66446Y31090
X65557Y42545
X68199Y42799
X66150Y37973
X64452Y29781
X94437Y35103
X97942Y36220
X91897Y31801
X82194Y35966
X84836Y37490
X86614Y36373
X87884Y40589
X99263Y34900
X101854Y32258
X97028Y28905
X78994Y32258
X78994Y38608
X78994Y44958
X84074Y50038
X96774Y50038
X90424Y50038
X89560Y30175
X90475Y31750
X83515Y36170
X85649Y30226
X96977Y32563
X93421Y29159
X91288Y35458
X88595Y29159
X86614Y31039
X90424Y39980
X90424Y37313
X88392Y32614
X87528Y31801
X95656Y33884
X97866Y43078
X95504Y45212
X98044Y45212
X101041Y36932
X91440Y43282
X94259Y43612
X85903Y40462
X81585Y40132
X84887Y42596
X95834Y38506
X90424Y32893
X81661Y39116
X84074Y44958
X86614Y41148
X92075Y35306
X102057Y45669
X85242Y39421
X84202Y38253
X92354Y31090
X91465Y42545
X94107Y42799
X92058Y37973
X90360Y29781
X120345Y35103
X123850Y36220
X117805Y31801
X108102Y35966
X110744Y37490
X112522Y36373
X113792Y40589
X125171Y34900
X127762Y32258
X122936Y28905
X104902Y32258
X104902Y38608
X104902Y44958
X109982Y50038
X122682Y50038
X116332Y50038
X115468Y30175
X116383Y31750
X109423Y36170
X111557Y30226
X122885Y32563
X119329Y29159
X117196Y35458
X114503Y29159
X112522Y31039
X116332Y39980
X116332Y37313
X114300Y32614
X113436Y31801
X121564Y33884
X123774Y43078
X121412Y45212
X123952Y45212
X126949Y36932
X117348Y43282
X120167Y43612
X111811Y40462
X107493Y40132
X110795Y42596
X121742Y38506
X116332Y32893
X107569Y39116
X109982Y44958
X112522Y41148
X117983Y35306
X127965Y45669
X111150Y39421
X110110Y38253
X118262Y31090
X117373Y42545
X120015Y42799
X117966Y37973
X116268Y29781
X146253Y35103
X149758Y36220
X143713Y31801
X134010Y35966
X136652Y37490
X138430Y36373
X139700Y40589
X151079Y34900
X153670Y32258
X148844Y28905
X130810Y32258
X130810Y38608
X130810Y44958
X135890Y50038
X148590Y50038
X142240Y50038
X141376Y30175
X142291Y31750
X135331Y36170
X137465Y30226
X148793Y32563
X145237Y29159
X143104Y35458
X140411Y29159
X138430Y31039
X142240Y39980
X142240Y37313
X140208Y32614
X139344Y31801
X147472Y33884
X149682Y43078
X147320Y45212
X149860Y45212
X152857Y36932
X143256Y43282
X146075Y43612
X137719Y40462
X133401Y40132
X136703Y42596
X147650Y38506
X142240Y32893
X133477Y39116
X135890Y44958
X138430Y41148
X143891Y35306
X153873Y45669
X137058Y39421
X136018Y38253
X144170Y31090
X143281Y42545
X145923Y42799
X143874Y37973
X142177Y29781
X16713Y61011
X20218Y62128
X14173Y57709
X4470Y61874
X7112Y63398
X8890Y62281
X10160Y66497
X21539Y60808
X24130Y58166
X19304Y54813
X1270Y58166
X1270Y64516
X1270Y70866
X6350Y75946
X19050Y75946
X12700Y75946
X11836Y56083
X12751Y57658
X5791Y62078
X7925Y56134
X19253Y58471
X15697Y55067
X13564Y61366
X10871Y55067
X8890Y56947
X12700Y65888
X12700Y63221
X10668Y58522
X9804Y57709
X17932Y59792
X20142Y68986
X17780Y71120
X20320Y71120
X23317Y62840
X13716Y69190
X16535Y69520
X8179Y66370
X3861Y66040
X7163Y68504
X18110Y64414
X12700Y58801
X3937Y65024
X6350Y70866
X8890Y67056
X14351Y61214
X24333Y71577
X7518Y65329
X6478Y64161
X14630Y56998
X13741Y68453
X16383Y68707
X14334Y63881
X12636Y55689
X42621Y61011
X46126Y62128
X40081Y57709
X30378Y61874
X33020Y63398
X34798Y62281
X36068Y66497
X47447Y60808
X50038Y58166
X45212Y54813
X27178Y58166
X27178Y64516
X27178Y70866
X32258Y75946
X44958Y75946
X38608Y75946
X37744Y56083
X38659Y57658
X31699Y62078
X33833Y56134
X45161Y58471
X41605Y55067
X39472Y61366
X36779Y55067
X34798Y56947
X38608Y65888
X38608Y63221
X36576Y58522
X35712Y57709
X43840Y59792
X46050Y68986
X43688Y71120
X46228Y71120
X49225Y62840
X39624Y69190
X42443Y69520
X34087Y66370
X29769Y66040
X33071Y68504
X44018Y64414
X38608Y58801
X29845Y65024
X32258Y70866
X34798Y67056
X40259Y61214
X50241Y71577
X33426Y65329
X32386Y64161
X40538Y56998
X39649Y68453
X42291Y68707
X40242Y63881
X38545Y55689
X88392Y6706
X72034Y62128
X65989Y57709
X56286Y61874
X58928Y63398
X60706Y62281
X61976Y66497
X73355Y60808
X75946Y58166
X71120Y54813
X53086Y58166
X53086Y64516
X53086Y70866
X58166Y75946
X70866Y75946
X64516Y75946
X63652Y56083
X64567Y57658
X57607Y62078
X59741Y56134
X71069Y58471
X67513Y55067
X65380Y61366
X62687Y55067
X60706Y56947
X64516Y65888
X64516Y63221
X62484Y58522
X61620Y57709
X69748Y59792
X71958Y68986
X69596Y71120
X72136Y71120
X75133Y62840
X65532Y69190
X68351Y69520
X59995Y66370
X55677Y66040
X58979Y68504
X69926Y64414
X64516Y58801
X55753Y65024
X58166Y70866
X60706Y67056
X66167Y61214
X76149Y71577
X59334Y65329
X58294Y64161
X66446Y56998
X65557Y68453
X68199Y68707
X66150Y63881
X64452Y55689
X94437Y61011
X97942Y62128
X91897Y57709
X82194Y61874
X84836Y63398
X86614Y62281
X87884Y66497
X99263Y60808
X101854Y58166
X97028Y54813
X78994Y58166
X78994Y64516
X78994Y70866
X84074Y75946
X96774Y75946
X90424Y75946
X89560Y56083
X90475Y57658
X83515Y62078
X85649Y56134
X96977Y58471
X93421Y55067
X91288Y61366
X88595Y55067
X86614Y56947
X90424Y65888
X90424Y63221
X88392Y58522
X87528Y57709
X95656Y59792
X97866Y68986
X95504Y71120
X98044Y71120
X101041Y62840
X91440Y69190
X94259Y69520
X85903Y66370
X81585Y66040
X84887Y68504
X95834Y64414
X90424Y58801
X81661Y65024
X84074Y70866
X86614Y67056
X92075Y61214
X102057Y71577
X85242Y65329
X84202Y64161
X92354Y56998
X91465Y68453
X94107Y68707
X92058Y63881
X90360Y55689
X120345Y61011
X123850Y62128
X117805Y57709
X108102Y61874
X110744Y63398
X112522Y62281
X113792Y66497
X125171Y60808
X127762Y58166
X122936Y54813
X104902Y58166
X104902Y64516
X104902Y70866
X109982Y75946
X122682Y75946
X116332Y75946
X115468Y56083
X116383Y57658
X109423Y62078
X111557Y56134
X122885Y58471
X119329Y55067
X117196Y61366
X114503Y55067
X112522Y56947
X116332Y65888
X116332Y63221
X114300Y58522
X113436Y57709
X121564Y59792
X123774Y68986
X121412Y71120
X123952Y71120
X126949Y62840
X117348Y69190
X120167Y69520
X111811Y66370
X107493Y66040
X110795Y68504
X121742Y64414
X116332Y58801
X107569Y65024
X109982Y70866
X112522Y67056
X117983Y61214
X127965Y71577
X111150Y65329
X110110Y64161
X118262Y56998
X117373Y68453
X120015Y68707
X117966Y63881
X116268Y55689
X146253Y61011
X149758Y62128
X143713Y57709
X134010Y61874
X136652Y63398
X138430Y62281
X139700Y66497
X151079Y60808
X153670Y58166
X148844Y54813
X130810Y58166
X130810Y64516
X130810Y70866
X135890Y75946
X148590Y75946
X142240Y75946
X141376Y56083
X142291Y57658
X135331Y62078
X137465Y56134
X148793Y58471
X145237Y55067
X143104Y61366
X140411Y55067
X138430Y56947
X142240Y65888
X142240Y63221
X140208Y58522
X139344Y57709
X147472Y59792
X149682Y68986
X147320Y71120
X149860Y71120
X152857Y62840
X143256Y69190
X146075Y69520
X137719Y66370
X133401Y66040
X136703Y68504
X147650Y64414
X142240Y58801
X133477Y65024
X135890Y70866
X138430Y67056
X143891Y61214
X153873Y71577
X137058Y65329
X136018Y64161
X144170Y56998
X143281Y68453
X145923Y68707
X143874Y63881
X142177Y55689
X16713Y86919
X20218Y88036
X14173Y83617
X4470Y87782
X7112Y89306
X8890Y88189
X10160Y92405
X21539Y86716
X24130Y84074
X19304Y80721
X1270Y84074
X1270Y90424
X1270Y96774
X6350Y101854
X19050Y101854
X12700Y101854
X11836Y81991
X12751Y83566
X5791Y87986
X7925Y82042
X19253Y84379
X15697Y80975
X13564Y87274
X10871Y80975
X8890Y82855
X12700Y91796
X12700Y89129
X10668Y84430
X9804Y83617
X17932Y85700
X20142Y94894
X17780Y97028
X20320Y97028
X23317Y88748
X13716Y95098
X16535Y95428
X8179Y92278
X3861Y91948
X7163Y94412
X18110Y90322
X12700Y84709
X3937Y90932
X6350Y96774
X8890Y92964
X14351Y87122
X24333Y97485
X7518Y91237
X6478Y90069
X14630Y82906
X13741Y94361
X16383Y94615
X14334Y89789
X12636Y81598
X42621Y86919
X46126Y88036
X40081Y83617
X30378Y87782
X33020Y89306
X34798Y88189
X36068Y92405
X47447Y86716
X50038Y84074
X45212Y80721
X27178Y84074
X27178Y90424
X27178Y96774
X32258Y101854
X44958Y101854
X38608Y101854
X37744Y81991
X38659Y83566
X31699Y87986
X33833Y82042
X45161Y84379
X41605Y80975
X39472Y87274
X36779Y80975
X34798Y82855
X38608Y91796
X38608Y89129
X36576Y84430
X35712Y83617
X43840Y85700
X46050Y94894
X43688Y97028
X46228Y97028
X49225Y88748
X39624Y95098
X42443Y95428
X34087Y92278
X29769Y91948
X33071Y94412
X44018Y90322
X38608Y84709
X29845Y90932
X32258Y96774
X34798Y92964
X40259Y87122
X50241Y97485
X33426Y91237
X32386Y90069
X40538Y82906
X39649Y94361
X42291Y94615
X40242Y89789
X38545Y81598
X68529Y86919
X72034Y88036
X65989Y83617
X56286Y87782
X58928Y89306
X60706Y88189
X61976Y92405
X73355Y86716
X75946Y84074
X71120Y80721
X53086Y84074
X53086Y90424
X53086Y96774
X58166Y101854
X70866Y101854
X64516Y101854
X63652Y81991
X64567Y83566
X57607Y87986
X59741Y82042
X71069Y84379
X67513Y80975
X65380Y87274
X62687Y80975
X60706Y82855
X64516Y91796
X64516Y89129
X62484Y84430
X61620Y83617
X69748Y85700
X71958Y94894
X69596Y97028
X72136Y97028
X75133Y88748
X65532Y95098
X68351Y95428
X59995Y92278
X55677Y91948
X58979Y94412
X69926Y90322
X64516Y84709
X55753Y90932
X58166Y96774
X60706Y92964
X66167Y87122
X76149Y97485
X59334Y91237
X58294Y90069
X66446Y82906
X65557Y94361
X68199Y94615
X66150Y89789
X94437Y86919
X97942Y88036
X91897Y83617
X82194Y87782
X84836Y89306
X86614Y88189
X87884Y92405
X99263Y86716
X101854Y84074
X97028Y80721
X78994Y84074
X78994Y90424
X78994Y96774
X84074Y101854
X96774Y101854
X90424Y101854
X89560Y81991
X90475Y83566
X83515Y87986
X85649Y82042
X96977Y84379
X93421Y80975
X91288Y87274
X88595Y80975
X86614Y82855
X90424Y91796
X90424Y89129
X88392Y84430
X87528Y83617
X95656Y85700
X97866Y94894
X95504Y97028
X98044Y97028
X101041Y88748
X91440Y95098
X94259Y95428
X85903Y92278
X81585Y91948
X84887Y94412
X95834Y90322
X90424Y84709
X81661Y90932
X84074Y96774
X86614Y92964
X92075Y87122
X102057Y97485
X85242Y91237
X84202Y90069
X92354Y82906
X91465Y94361
X94107Y94615
X92058Y89789
X90360Y81598
X120345Y86919
X123850Y88036
X117805Y83617
X108102Y87782
X110744Y89306
X112522Y88189
X113792Y92405
X125171Y86716
X127762Y84074
X122936Y80721
X104902Y84074
X104902Y90424
X104902Y96774
X109982Y101854
X122682Y101854
X116332Y101854
X115468Y81991
X116383Y83566
X109423Y87986
X111557Y82042
X122885Y84379
X119329Y80975
X117196Y87274
X114503Y80975
X112522Y82855
X116332Y91796
X116332Y89129
X114300Y84430
X113436Y83617
X121564Y85700
X123774Y94894
X121412Y97028
X123952Y97028
X126949Y88748
X117348Y95098
X120167Y95428
X111811Y92278
X107493Y91948
X110795Y94412
X121742Y90322
X116332Y84709
X107569Y90932
X109982Y96774
X112522Y92964
X117983Y87122
X127965Y97485
X111150Y91237
X110110Y90069
X118262Y82906
X117373Y94361
X120015Y94615
X117966Y89789
X116268Y81598
X146253Y86919
X149758Y88036
X143713Y83617
X134010Y87782
X136652Y89306
X138430Y88189
X139700Y92405
X151079Y86716
X153670Y84074
X148844Y80721
X130810Y84074
X130810Y90424
X130810Y96774
X135890Y101854
X148590Y101854
X142240Y101854
X141376Y81991
X142291Y83566
X135331Y87986
X137465Y82042
X148793Y84379
X145237Y80975
X143104Y87274
X140411Y80975
X138430Y82855
X142240Y91796
X142240Y89129
X140208Y84430
X139344Y83617
X147472Y85700
X149682Y94894
X147320Y97028
X149860Y97028
X152857Y88748
X143256Y95098
X146075Y95428
X137719Y92278
X133401Y91948
X136703Y94412
X147650Y90322
X142240Y84709
X133477Y90932
X135890Y96774
X138430Y92964
X143891Y87122
X153873Y97485
X137058Y91237
X136018Y90069
X144170Y82906
X143281Y94361
X145923Y94615
X143874Y89789
X142177Y81598
X16713Y9195
X20218Y10312
X14173Y5893
X4470Y10058
X7112Y11582
X8890Y10465
X10160Y14681
X21539Y8992
X24130Y6350
X19304Y2997
X1270Y6350
X1270Y12700
X1270Y19050
X68529Y61011
X6350Y24130
X19050Y24130
X12700Y24130
X11836Y4267
X12751Y5842
X5791Y10262
X7925Y4318
X19253Y6655
X15697Y3251
X13564Y9550
X10871Y3251
X8890Y5131
X12700Y14072
X12700Y11405
X10668Y6706
X9804Y5893
X17932Y7976
X20142Y17170
X17780Y19304
X20320Y19304
X23317Y11024
X13716Y17374
X16535Y17704
X8179Y14554
X3861Y14224
X7163Y16688
X18110Y12598
X12700Y6985
X3937Y13208
X6350Y19050
X8890Y15240
X14351Y9398
X24333Y19761
X7518Y13513
X6478Y12345
X14630Y5182
X13741Y16637
X16383Y16891
X14334Y12065
X12636Y3873
X42621Y9195
X46126Y10312
X40081Y5893
X30378Y10058
X33020Y11582
X34798Y10465
X36068Y14681
X47447Y8992
X50038Y6350
X45212Y2997
X27178Y6350
X27178Y12700
X27178Y19050
X32258Y24130
X44958Y24130
X38608Y24130
X37744Y4267
X38659Y5842
X31699Y10262
X33833Y4318
X45161Y6655
X41605Y3251
X39472Y9550
X36779Y3251
X34798Y5131
X38608Y14072
X38608Y11405
X36576Y6706
X35712Y5893
X43840Y7976
X46050Y17170
X43688Y19304
X46228Y19304
X49225Y11024
X39624Y17374
X42443Y17704
X34087Y14554
X29769Y14224
X33071Y16688
X44018Y12598
X38608Y6985
X29845Y13208
X32258Y19050
X34798Y15240
X40259Y9398
X50241Y19761
X33426Y13513
X32386Y12345
X40538Y5182
X39649Y16637
X42291Y16891
X40242Y12065
X38545Y3873
X68529Y9195
X72034Y10312
X65989Y5893
X56286Y10058
X58928Y11582
X60706Y10465
X61976Y14681
X73355Y8992
X75946Y6350
X71120Y2997
X53086Y6350
X53086Y12700
X53086Y19050
X58166Y24130
X70866Y24130
X64516Y24130
X63652Y4267
X64567Y5842
X57607Y10262
X59741Y4318
X71069Y6655
X67513Y3251
X65380Y9550
X62687Y3251
X60706Y5131
X64516Y14072
X64516Y11405
X62484Y6706
X61620Y5893
X69748Y7976
X71958Y17170
X69596Y19304
X72136Y19304
X75133Y11024
X65532Y17374
X68351Y17704
X59995Y14554
X55677Y14224
X58979Y16688
X69926Y12598
X64516Y6985
X55753Y13208
X58166Y19050
X60706Y15240
X66167Y9398
X76149Y19761
X59334Y13513
X58294Y12345
X66446Y5182
X65557Y16637
X68199Y16891
X66150Y12065
X64452Y3873
X94437Y9195
X97942Y10312
X91897Y5893
X82194Y10058
X84836Y11582
X86614Y10465
X87884Y14681
X99263Y8992
X101854Y6350
X97028Y2997
X78994Y6350
X78994Y12700
X78994Y19050
X84074Y24130
X96774Y24130
X90424Y24130
X89560Y4267
X90475Y5842
X83515Y10262
X85649Y4318
X96977Y6655
X93421Y3251
X91288Y9550
X88595Y3251
X86614Y5131
X90424Y14072
X90424Y11405
X87528Y5893
X95656Y7976
X97866Y17170
X95504Y19304
X98044Y19304
X101041Y11024
X91440Y17374
X94259Y17704
X85903Y14554
X81585Y14224
X84887Y16688
X95834Y12598
X90424Y6985
X81661Y13208
X84074Y19050
X64452Y81598
T4
X12700Y64491
X142240Y38583
X116332Y38583
X90424Y38583
X64516Y38583
X38608Y38583
X12700Y38583
X142240Y12675
X116332Y12675
X90424Y12675
X64516Y12675
X38608Y12675
X12700Y12675
X12700Y90399
X90424Y64491
X64516Y64491
X38608Y64491
X116332Y90399
X90424Y90399
X142240Y64491
X64516Y90399
X142240Y90399
X38608Y90399
X116332Y64491
M30