M48
;GenerationSoftware,Autodesk,EAGLE,9.6.2*%
;CreationDate,2022-11-09T15:40:51Z*%
FMAT,2
ICI,OFF
METRIC,TZ,000.000
T4C0.203
T3C0.305
T2C0.700
T1C3.048
%
G90
M71
T1
X119888Y11938
X139446Y28194
X22098Y28194
X2540Y3810
X22098Y3810
X22098Y11938
X41656Y11938
X61214Y20066
X80772Y20066
X80772Y36322
X100330Y28194
X41656Y28194
X41656Y36322
X41656Y20066
X100330Y20066
X139446Y3810
X139446Y60706
X2540Y36322
X22098Y20066
X119888Y20066
X100330Y11938
X2540Y11938
X61214Y28194
X2540Y20066
X119888Y28194
X139446Y20066
X61214Y11938
X41656Y3810
X100330Y3810
X61214Y36322
X139446Y11938
X2540Y28194
X61214Y3810
X22098Y36322
X119888Y3810
X80772Y28194
X80772Y11938
X80772Y3810
X100330Y36322
X119888Y36322
X139446Y36322
X2540Y44450
X22098Y44450
X41656Y44450
X61214Y44450
X80772Y44450
X100330Y44450
X119888Y44450
X139446Y44450
X2540Y52578
X22098Y52578
X41656Y52578
X61214Y52578
X80772Y52578
X100330Y52578
X119888Y52578
X139446Y52578
X2540Y60706
X22098Y60706
X41656Y60706
X61214Y60706
X80772Y60706
X100330Y60706
X119888Y60706
T2
X141986Y63246
X5080Y1270
X5080Y6350
X24638Y1270
X24638Y6350
X44196Y1270
X44196Y6350
X63754Y1270
X63754Y6350
X83312Y1270
X83312Y6350
X102870Y1270
X102870Y6350
X122428Y1270
X122428Y6350
X141986Y1270
X141986Y6350
X5080Y9398
X5080Y14478
X24638Y9398
X24638Y14478
X44196Y9398
X44196Y14478
X63754Y9398
X63754Y14478
X83312Y9398
X83312Y14478
X102870Y9398
X102870Y14478
X122428Y9398
X122428Y14478
X141986Y9398
X141986Y14478
X5080Y17526
X5080Y22606
X24638Y17526
X24638Y22606
X44196Y17526
X44196Y22606
X63754Y17526
X63754Y22606
X83312Y17526
X83312Y22606
X102870Y17526
X102870Y22606
X122428Y17526
X122428Y22606
X141986Y17526
X141986Y22606
X5080Y25654
X5080Y30734
X24638Y25654
X24638Y30734
X44196Y25654
X44196Y30734
X63754Y25654
X63754Y30734
X83312Y25654
X83312Y30734
X102870Y25654
X102870Y30734
X122428Y25654
X122428Y30734
X141986Y25654
X141986Y30734
X5080Y33782
X5080Y38862
X24638Y33782
X24638Y38862
X44196Y33782
X44196Y38862
X63754Y33782
X63754Y38862
X83312Y33782
X83312Y38862
X102870Y33782
X102870Y38862
X122428Y33782
X122428Y38862
X141986Y33782
X141986Y38862
X5080Y41910
X5080Y46990
X24638Y41910
X24638Y46990
X44196Y41910
X44196Y46990
X63754Y41910
X63754Y46990
X83312Y41910
X83312Y46990
X102870Y41910
X102870Y46990
X122428Y41910
X122428Y46990
X141986Y41910
X141986Y46990
X5080Y50038
X5080Y55118
X24638Y50038
X24638Y55118
X44196Y50038
X44196Y55118
X63754Y50038
X63754Y55118
X83312Y50038
X83312Y55118
X102870Y50038
X102870Y55118
X122428Y50038
X122428Y55118
X141986Y50038
X141986Y55118
X5080Y58166
X5080Y63246
X24638Y58166
X24638Y63246
X44196Y58166
X44196Y63246
X63754Y58166
X63754Y63246
X83312Y58166
X83312Y63246
X102870Y58166
X102870Y63246
X122428Y58166
X122428Y63246
X141986Y58166
T3
X8992Y10211
X11532Y14986
X5791Y10414
X15900Y8788
X14986Y14376
X8128Y14173
X10389Y11938
X16053Y13411
X16866Y12446
X15951Y11938
X13005Y14275
X10922Y9271
X10820Y15037
X8636Y13614
X6350Y11938
X8230Y10262
X12725Y10160
X33071Y9677
X25095Y11887
X28550Y10211
X31090Y14986
X35458Y8788
X34544Y14376
X27686Y14173
X29947Y11938
X35611Y13411
X36424Y12446
X35509Y11938
X32563Y14275
X30480Y9271
X30378Y15037
X28194Y13614
X25908Y11938
X27788Y10262
X32283Y10160
X52629Y9677
X44653Y11887
X48108Y10211
X50648Y14986
X44907Y10414
X55016Y8788
X54102Y14376
X47244Y14173
X49505Y11938
X55169Y13411
X55982Y12446
X55067Y11938
X52121Y14275
X50038Y9271
X49936Y15037
X47752Y13614
X45466Y11938
X47346Y10262
X51841Y10160
X72187Y9677
X64211Y11887
X67666Y10211
X70206Y14986
X64465Y10414
X74574Y8788
X73660Y14376
X66802Y14173
X69063Y11938
X74727Y13411
X75540Y12446
X74625Y11938
X71679Y14275
X69596Y9271
X69494Y15037
X67310Y13614
X65024Y11938
X66904Y10262
X71399Y10160
X91745Y9677
X83769Y11887
X87224Y10211
X89764Y14986
X84023Y10414
X94132Y8788
X93218Y14376
X86360Y14173
X88621Y11938
X94285Y13411
X95098Y12446
X94183Y11938
X91237Y14275
X89154Y9271
X89052Y15037
X86868Y13614
X84582Y11938
X86462Y10262
X90957Y10160
X111303Y9677
X103327Y11887
X106782Y10211
X109322Y14986
X103581Y10414
X113690Y8788
X112776Y14376
X105918Y14173
X108179Y11938
X113843Y13411
X114656Y12446
X113741Y11938
X110795Y14275
X108712Y9271
X108610Y15037
X106426Y13614
X104140Y11938
X106020Y10262
X110515Y10160
X130861Y9677
X122885Y11887
X126340Y10211
X128880Y14986
X123139Y10414
X133248Y8788
X132334Y14376
X125476Y14173
X127737Y11938
X133401Y13411
X134214Y12446
X133299Y11938
X130353Y14275
X128270Y9271
X128168Y15037
X125984Y13614
X123698Y11938
X125578Y10262
X130073Y10160
X150419Y9677
X142443Y11887
X145898Y10211
X148438Y14986
X142697Y10414
X152806Y8788
X151892Y14376
X145034Y14173
X147295Y11938
X152959Y13411
X153772Y12446
X152857Y11938
X149911Y14275
X147828Y9271
X147726Y15037
X145542Y13614
X143256Y11938
X145136Y10262
X149631Y10160
X13513Y17805
X5537Y20015
X8992Y18339
X11532Y23114
X5791Y18542
X15900Y16916
X14986Y22504
X8128Y22301
X10389Y20066
X16053Y21539
X16866Y20574
X15951Y20066
X13005Y22403
X10922Y17399
X10820Y23165
X8636Y21742
X6350Y20066
X8230Y18390
X12725Y18288
X33071Y17805
X25095Y20015
X28550Y18339
X31090Y23114
X25349Y18542
X35458Y16916
X34544Y22504
X27686Y22301
X29947Y20066
X35611Y21539
X36424Y20574
X35509Y20066
X32563Y22403
X30480Y17399
X30378Y23165
X28194Y21742
X25908Y20066
X27788Y18390
X32283Y18288
X52629Y17805
X44653Y20015
X48108Y18339
X50648Y23114
X44907Y18542
X55016Y16916
X54102Y22504
X47244Y22301
X49505Y20066
X55169Y21539
X55982Y20574
X55067Y20066
X52121Y22403
X50038Y17399
X49936Y23165
X47752Y21742
X45466Y20066
X47346Y18390
X51841Y18288
X72187Y17805
X64211Y20015
X67666Y18339
X70206Y23114
X64465Y18542
X74574Y16916
X73660Y22504
X66802Y22301
X69063Y20066
X74727Y21539
X75540Y20574
X74625Y20066
X71679Y22403
X69596Y17399
X69494Y23165
X67310Y21742
X65024Y20066
X66904Y18390
X71399Y18288
X91745Y17805
X83769Y20015
X87224Y18339
X89764Y23114
X84023Y18542
X94132Y16916
X93218Y22504
X86360Y22301
X88621Y20066
X94285Y21539
X95098Y20574
X94183Y20066
X91237Y22403
X89154Y17399
X89052Y23165
X86868Y21742
X84582Y20066
X86462Y18390
X90957Y18288
X111303Y17805
X103327Y20015
X106782Y18339
X109322Y23114
X103581Y18542
X113690Y16916
X112776Y22504
X105918Y22301
X108179Y20066
X113843Y21539
X114656Y20574
X113741Y20066
X110795Y22403
X108712Y17399
X108610Y23165
X106426Y21742
X104140Y20066
X106020Y18390
X110515Y18288
X130861Y17805
X122885Y20015
X126340Y18339
X128880Y23114
X123139Y18542
X133248Y16916
X132334Y22504
X125476Y22301
X127737Y20066
X133401Y21539
X134214Y20574
X133299Y20066
X130353Y22403
X128270Y17399
X128168Y23165
X125984Y21742
X123698Y20066
X125578Y18390
X130073Y18288
X150419Y17805
X142443Y20015
X145898Y18339
X148438Y23114
X142697Y18542
X152806Y16916
X151892Y22504
X145034Y22301
X147295Y20066
X152959Y21539
X153772Y20574
X152857Y20066
X149911Y22403
X147828Y17399
X147726Y23165
X145542Y21742
X143256Y20066
X145136Y18390
X149631Y18288
X13513Y25933
X5537Y28143
X8992Y26467
X11532Y31242
X5791Y26670
X15900Y25044
X14986Y30632
X8128Y30429
X10389Y28194
X16053Y29667
X16866Y28702
X15951Y28194
X13005Y30531
X10922Y25527
X10820Y31293
X8636Y29870
X6350Y28194
X8230Y26518
X12725Y26416
X33071Y25933
X25095Y28143
X28550Y26467
X31090Y31242
X25349Y26670
X35458Y25044
X34544Y30632
X27686Y30429
X29947Y28194
X35611Y29667
X36424Y28702
X35509Y28194
X32563Y30531
X30480Y25527
X30378Y31293
X28194Y29870
X25908Y28194
X27788Y26518
X32283Y26416
X52629Y25933
X44653Y28143
X48108Y26467
X50648Y31242
X44907Y26670
X55016Y25044
X54102Y30632
X47244Y30429
X49505Y28194
X55169Y29667
X55982Y28702
X55067Y28194
X52121Y30531
X50038Y25527
X49936Y31293
X47752Y29870
X45466Y28194
X47346Y26518
X51841Y26416
X72187Y25933
X64211Y28143
X67666Y26467
X70206Y31242
X64465Y26670
X74574Y25044
X73660Y30632
X66802Y30429
X69063Y28194
X74727Y29667
X75540Y28702
X74625Y28194
X71679Y30531
X69596Y25527
X69494Y31293
X67310Y29870
X65024Y28194
X66904Y26518
X71399Y26416
X91745Y25933
X83769Y28143
X87224Y26467
X89764Y31242
X84023Y26670
X94132Y25044
X93218Y30632
X86360Y30429
X88621Y28194
X94285Y29667
X95098Y28702
X94183Y28194
X91237Y30531
X89154Y25527
X89052Y31293
X86868Y29870
X84582Y28194
X86462Y26518
X90957Y26416
X111303Y25933
X103327Y28143
X106782Y26467
X109322Y31242
X103581Y26670
X113690Y25044
X112776Y30632
X105918Y30429
X108179Y28194
X113843Y29667
X114656Y28702
X113741Y28194
X110795Y30531
X108712Y25527
X108610Y31293
X106426Y29870
X104140Y28194
X106020Y26518
X110515Y26416
X130861Y25933
X122885Y28143
X126340Y26467
X128880Y31242
X123139Y26670
X133248Y25044
X132334Y30632
X125476Y30429
X127737Y28194
X133401Y29667
X134214Y28702
X133299Y28194
X130353Y30531
X128270Y25527
X128168Y31293
X125984Y29870
X123698Y28194
X125578Y26518
X130073Y26416
X150419Y25933
X142443Y28143
X145898Y26467
X148438Y31242
X142697Y26670
X152806Y25044
X151892Y30632
X145034Y30429
X147295Y28194
X152959Y29667
X153772Y28702
X152857Y28194
X149911Y30531
X147828Y25527
X147726Y31293
X145542Y29870
X143256Y28194
X145136Y26518
X149631Y26416
X13513Y34061
X5537Y36271
X8992Y34595
X11532Y39370
X5791Y34798
X15900Y33172
X14986Y38760
X8128Y38557
X10389Y36322
X16053Y37795
X16866Y36830
X15951Y36322
X13005Y38659
X10922Y33655
X10820Y39421
X8636Y37998
X6350Y36322
X8230Y34646
X12725Y34544
X33071Y34061
X25095Y36271
X28550Y34595
X31090Y39370
X25349Y34798
X35458Y33172
X34544Y38760
X27686Y38557
X29947Y36322
X35611Y37795
X36424Y36830
X35509Y36322
X32563Y38659
X30480Y33655
X30378Y39421
X28194Y37998
X25908Y36322
X27788Y34646
X32283Y34544
X52629Y34061
X44653Y36271
X48108Y34595
X50648Y39370
X44907Y34798
X55016Y33172
X54102Y38760
X47244Y38557
X49505Y36322
X55169Y37795
X55982Y36830
X55067Y36322
X52121Y38659
X50038Y33655
X49936Y39421
X47752Y37998
X45466Y36322
X47346Y34646
X51841Y34544
X72187Y34061
X64211Y36271
X67666Y34595
X70206Y39370
X64465Y34798
X74574Y33172
X73660Y38760
X66802Y38557
X69063Y36322
X74727Y37795
X75540Y36830
X74625Y36322
X71679Y38659
X69596Y33655
X69494Y39421
X67310Y37998
X65024Y36322
X66904Y34646
X71399Y34544
X91745Y34061
X83769Y36271
X87224Y34595
X89764Y39370
X84023Y34798
X94132Y33172
X93218Y38760
X86360Y38557
X88621Y36322
X94285Y37795
X95098Y36830
X94183Y36322
X91237Y38659
X89154Y33655
X89052Y39421
X25349Y10414
X84582Y36322
X86462Y34646
X90957Y34544
X111303Y34061
X103327Y36271
X106782Y34595
X109322Y39370
X103581Y34798
X113690Y33172
X112776Y38760
X105918Y38557
X108179Y36322
X113843Y37795
X114656Y36830
X113741Y36322
X110795Y38659
X108712Y33655
X108610Y39421
X106426Y37998
X104140Y36322
X106020Y34646
X110515Y34544
X130861Y34061
X122885Y36271
X126340Y34595
X128880Y39370
X123139Y34798
X133248Y33172
X132334Y38760
X125476Y38557
X127737Y36322
X133401Y37795
X134214Y36830
X133299Y36322
X130353Y38659
X128270Y33655
X128168Y39421
X125984Y37998
X123698Y36322
X125578Y34646
X130073Y34544
X150419Y34061
X142443Y36271
X145898Y34595
X148438Y39370
X142697Y34798
X152806Y33172
X151892Y38760
X145034Y38557
X147295Y36322
X152959Y37795
X153772Y36830
X152857Y36322
X149911Y38659
X147828Y33655
X147726Y39421
X145542Y37998
X143256Y36322
X145136Y34646
X149631Y34544
X13513Y42189
X5537Y44399
X8992Y42723
X11532Y47498
X5791Y42926
X15900Y41300
X14986Y46888
X8128Y46685
X10389Y44450
X16053Y45923
X16866Y44958
X15951Y44450
X13005Y46787
X10922Y41783
X10820Y47549
X8636Y46126
X6350Y44450
X8230Y42774
X12725Y42672
X33071Y42189
X25095Y44399
X28550Y42723
X31090Y47498
X25349Y42926
X35458Y41300
X34544Y46888
X27686Y46685
X29947Y44450
X35611Y45923
X36424Y44958
X35509Y44450
X32563Y46787
X30480Y41783
X30378Y47549
X28194Y46126
X25908Y44450
X27788Y42774
X32283Y42672
X52629Y42189
X44653Y44399
X48108Y42723
X50648Y47498
X44907Y42926
X55016Y41300
X54102Y46888
X47244Y46685
X49505Y44450
X55169Y45923
X55982Y44958
X55067Y44450
X52121Y46787
X50038Y41783
X49936Y47549
X47752Y46126
X45466Y44450
X47346Y42774
X51841Y42672
X72187Y42189
X64211Y44399
X67666Y42723
X70206Y47498
X64465Y42926
X74574Y41300
X73660Y46888
X66802Y46685
X69063Y44450
X74727Y45923
X75540Y44958
X74625Y44450
X71679Y46787
X69596Y41783
X69494Y47549
X67310Y46126
X65024Y44450
X66904Y42774
X71399Y42672
X91745Y42189
X83769Y44399
X87224Y42723
X89764Y47498
X84023Y42926
X94132Y41300
X93218Y46888
X86360Y46685
X88621Y44450
X94285Y45923
X95098Y44958
X94183Y44450
X91237Y46787
X89154Y41783
X89052Y47549
X86868Y46126
X84582Y44450
X86462Y42774
X90957Y42672
X111303Y42189
X103327Y44399
X106782Y42723
X109322Y47498
X103581Y42926
X113690Y41300
X112776Y46888
X105918Y46685
X108179Y44450
X113843Y45923
X114656Y44958
X113741Y44450
X110795Y46787
X108712Y41783
X108610Y47549
X106426Y46126
X104140Y44450
X106020Y42774
X110515Y42672
X130861Y42189
X122885Y44399
X126340Y42723
X128880Y47498
X123139Y42926
X133248Y41300
X132334Y46888
X125476Y46685
X127737Y44450
X133401Y45923
X134214Y44958
X133299Y44450
X130353Y46787
X128270Y41783
X128168Y47549
X125984Y46126
X123698Y44450
X125578Y42774
X130073Y42672
X150419Y42189
X142443Y44399
X145898Y42723
X148438Y47498
X142697Y42926
X152806Y41300
X151892Y46888
X145034Y46685
X147295Y44450
X152959Y45923
X153772Y44958
X152857Y44450
X149911Y46787
X147828Y41783
X147726Y47549
X145542Y46126
X143256Y44450
X145136Y42774
X149631Y42672
X13513Y50317
X5537Y52527
X8992Y50851
X11532Y55626
X5791Y51054
X15900Y49428
X14986Y55016
X8128Y54813
X10389Y52578
X16053Y54051
X16866Y53086
X15951Y52578
X13005Y54915
X10922Y49911
X10820Y55677
X8636Y54254
X6350Y52578
X8230Y50902
X12725Y50800
X33071Y50317
X25095Y52527
X28550Y50851
X31090Y55626
X25349Y51054
X35458Y49428
X34544Y55016
X27686Y54813
X29947Y52578
X35611Y54051
X36424Y53086
X35509Y52578
X32563Y54915
X30480Y49911
X30378Y55677
X28194Y54254
X25908Y52578
X27788Y50902
X32283Y50800
X52629Y50317
X44653Y52527
X48108Y50851
X50648Y55626
X44907Y51054
X55016Y49428
X54102Y55016
X47244Y54813
X49505Y52578
X55169Y54051
X55982Y53086
X55067Y52578
X52121Y54915
X50038Y49911
X49936Y55677
X47752Y54254
X45466Y52578
X47346Y50902
X51841Y50800
X72187Y50317
X64211Y52527
X67666Y50851
X70206Y55626
X64465Y51054
X74574Y49428
X73660Y55016
X66802Y54813
X69063Y52578
X74727Y54051
X75540Y53086
X74625Y52578
X71679Y54915
X69596Y49911
X69494Y55677
X67310Y54254
X65024Y52578
X66904Y50902
X71399Y50800
X91745Y50317
X83769Y52527
X87224Y50851
X89764Y55626
X84023Y51054
X94132Y49428
X93218Y55016
X86360Y54813
X88621Y52578
X94285Y54051
X95098Y53086
X94183Y52578
X91237Y54915
X89154Y49911
X89052Y55677
X86868Y54254
X84582Y52578
X86462Y50902
X90957Y50800
X111303Y50317
X103327Y52527
X106782Y50851
X109322Y55626
X103581Y51054
X113690Y49428
X112776Y55016
X105918Y54813
X108179Y52578
X113843Y54051
X114656Y53086
X113741Y52578
X110795Y54915
X108712Y49911
X108610Y55677
X106426Y54254
X104140Y52578
X106020Y50902
X110515Y50800
X130861Y50317
X122885Y52527
X126340Y50851
X128880Y55626
X123139Y51054
X133248Y49428
X132334Y55016
X125476Y54813
X127737Y52578
X133401Y54051
X134214Y53086
X133299Y52578
X130353Y54915
X128270Y49911
X128168Y55677
X125984Y54254
X123698Y52578
X125578Y50902
X130073Y50800
X150419Y50317
X142443Y52527
X145898Y50851
X142697Y51054
X152806Y49428
X151892Y55016
X145034Y54813
X147295Y52578
X152959Y54051
X153772Y53086
X152857Y52578
X149911Y54915
X147828Y49911
X147726Y55677
X145542Y54254
X143256Y52578
X145136Y50902
X149631Y50800
X13513Y58445
X5537Y60655
X8992Y58979
X11532Y63754
X5791Y59182
X15900Y57556
X14986Y63144
X8128Y62941
X10389Y60706
X16053Y62179
X16866Y61214
X15951Y60706
X13005Y63043
X10922Y58039
X10820Y63805
X8636Y62382
X6350Y60706
X8230Y59030
X12725Y58928
X33071Y58445
X25095Y60655
X28550Y58979
X31090Y63754
X25349Y59182
X35458Y57556
X34544Y63144
X27686Y62941
X29947Y60706
X35611Y62179
X36424Y61214
X35509Y60706
X32563Y63043
X30480Y58039
X30378Y63805
X28194Y62382
X25908Y60706
X27788Y59030
X32283Y58928
X52629Y58445
X44653Y60655
X48108Y58979
X50648Y63754
X44907Y59182
X55016Y57556
X54102Y63144
X47244Y62941
X49505Y60706
X55169Y62179
X55982Y61214
X55067Y60706
X52121Y63043
X50038Y58039
X49936Y63805
X47752Y62382
X45466Y60706
X47346Y59030
X51841Y58928
X72187Y58445
X64211Y60655
X67666Y58979
X70206Y63754
X64465Y59182
X74574Y57556
X73660Y63144
X66802Y62941
X69063Y60706
X74727Y62179
X75540Y61214
X74625Y60706
X71679Y63043
X69596Y58039
X69494Y63805
X67310Y62382
X65024Y60706
X66904Y59030
X71399Y58928
X91745Y58445
X83769Y60655
X87224Y58979
X89764Y63754
X84023Y59182
X94132Y57556
X93218Y63144
X86360Y62941
X88621Y60706
X94285Y62179
X95098Y61214
X94183Y60706
X91237Y63043
X89154Y58039
X89052Y63805
X86868Y62382
X84582Y60706
X86462Y59030
X90957Y58928
X111303Y58445
X103327Y60655
X106782Y58979
X109322Y63754
X103581Y59182
X113690Y57556
X112776Y63144
X105918Y62941
X108179Y60706
X113843Y62179
X114656Y61214
X113741Y60706
X110795Y63043
X108712Y58039
X108610Y63805
X106426Y62382
X104140Y60706
X106020Y59030
X110515Y58928
X130861Y58445
X122885Y60655
X126340Y58979
X128880Y63754
X123139Y59182
X133248Y57556
X132334Y63144
X125476Y62941
X127737Y60706
X133401Y62179
X134214Y61214
X133299Y60706
X130353Y63043
X128270Y58039
X128168Y63805
X125984Y62382
X123698Y60706
X125578Y59030
X130073Y58928
X150419Y58445
X142443Y60655
X145898Y58979
X148438Y63754
X142697Y59182
X152806Y57556
X151892Y63144
X145034Y62941
X147295Y60706
X152959Y62179
X153772Y61214
X152857Y60706
X149911Y63043
X147828Y58039
X147726Y63805
X145542Y62382
X143256Y60706
X145136Y59030
X149631Y58928
X86868Y37998
X13513Y1549
X5537Y3759
X8992Y2083
X11532Y6858
X5791Y2286
X15900Y660
X14986Y6248
X8128Y6045
X10389Y3810
X16053Y5283
X16866Y4318
X15951Y3810
X13005Y6147
X10922Y1143
X10820Y6909
X8636Y5486
X6350Y3810
X8230Y2134
X12725Y2032
X33071Y1549
X25095Y3759
X28550Y2083
X31090Y6858
X25349Y2286
X35458Y660
X34544Y6248
X27686Y6045
X29947Y3810
X35611Y5283
X36424Y4318
X35509Y3810
X32563Y6147
X30480Y1143
X30378Y6909
X28194Y5486
X25908Y3810
X27788Y2134
X32283Y2032
X52629Y1549
X44653Y3759
X48108Y2083
X50648Y6858
X44907Y2286
X55016Y660
X54102Y6248
X47244Y6045
X49505Y3810
X55169Y5283
X55982Y4318
X55067Y3810
X52121Y6147
X50038Y1143
X49936Y6909
X47752Y5486
X45466Y3810
X47346Y2134
X51841Y2032
X72187Y1549
X64211Y3759
X67666Y2083
X70206Y6858
X64465Y2286
X74574Y660
X73660Y6248
X66802Y6045
X69063Y3810
X74727Y5283
X75540Y4318
X74625Y3810
X71679Y6147
X69596Y1143
X69494Y6909
X67310Y5486
X65024Y3810
X66904Y2134
X71399Y2032
X91745Y1549
X83769Y3759
X87224Y2083
X89764Y6858
X84023Y2286
X94132Y660
X93218Y6248
X86360Y6045
X88621Y3810
X94285Y5283
X95098Y4318
X94183Y3810
X91237Y6147
X89154Y1143
X89052Y6909
X86868Y5486
X84582Y3810
X86462Y2134
X90957Y2032
X111303Y1549
X103327Y3759
X106782Y2083
X109322Y6858
X103581Y2286
X113690Y660
X112776Y6248
X105918Y6045
X108179Y3810
X113843Y5283
X114656Y4318
X113741Y3810
X110795Y6147
X108712Y1143
X108610Y6909
X106426Y5486
X104140Y3810
X106020Y2134
X110515Y2032
X130861Y1549
X122885Y3759
X126340Y2083
X128880Y6858
X123139Y2286
X133248Y660
X132334Y6248
X125476Y6045
X127737Y3810
X133401Y5283
X134214Y4318
X133299Y3810
X130353Y6147
X128270Y1143
X128168Y6909
X125984Y5486
X123698Y3810
X125578Y2134
X130073Y2032
X150419Y1549
X142443Y3759
X145898Y2083
X148438Y6858
X142697Y2286
X152806Y660
X151892Y6248
X145034Y6045
X147295Y3810
X152959Y5283
X153772Y4318
X152857Y3810
X149911Y6147
X147828Y1143
X147726Y6909
X145542Y5486
X143256Y3810
X145136Y2134
X149631Y2032
X13513Y9677
X5537Y11887
X148438Y55626
T4
X67564Y36297
X48006Y36297
X28448Y36297
X8890Y36297
X145796Y28169
X126238Y28169
X106680Y28169
X106680Y36297
X87122Y28169
X67564Y28169
X48006Y28169
X28448Y28169
X8890Y28169
X145796Y20041
X126238Y20041
X106680Y20041
X87122Y20041
X67564Y20041
X48006Y20041
X28448Y20041
X8890Y20041
X145796Y11913
X126238Y11913
X106680Y11913
X87122Y11913
X67564Y11913
X48006Y11913
X28448Y11913
X8890Y11913
X145796Y3785
X126238Y3785
X106680Y3785
X87122Y3785
X67564Y3785
X48006Y3785
X28448Y3785
X8890Y3785
X145796Y44425
X126238Y44425
X145796Y36297
X106680Y60681
X126238Y36297
X67564Y52553
X48006Y44425
X28448Y52553
X87122Y44425
X87122Y60681
X28448Y44425
X87122Y52553
X67564Y44425
X8890Y44425
X67564Y60681
X87122Y36297
X145796Y60681
X8890Y52553
X106680Y52553
X48006Y60681
X106680Y44425
X48006Y52553
X28448Y60681
X126238Y52553
X126238Y60681
X8890Y60681
X145796Y52553
M30