M48
;GenerationSoftware,Autodesk,EAGLE,9.6.2*%
;CreationDate,2022-11-07T20:15:55Z*%
FMAT,2
ICI,OFF
METRIC,TZ,000.000
T4C0.203
T3C0.305
T2C0.700
T1C3.048
%
G90
M71
T1
X41656Y52578
X2540Y52578
X2540Y60706
X41656Y76962
X41656Y68834
X22098Y20066
X41656Y44450
X22098Y60706
X22098Y36322
X41656Y85090
X41656Y20066
X22098Y44450
X41656Y150114
X41656Y60706
X2540Y76962
X41656Y28194
X2540Y85090
X41656Y3810
X41656Y11938
X2540Y44450
X2540Y68834
X2540Y11938
X2540Y20066
X2540Y36322
X22098Y11938
X22098Y76962
X41656Y36322
X2540Y3810
X22098Y68834
X22098Y85090
X22098Y3810
X2540Y28194
X22098Y28194
X22098Y52578
X2540Y93218
X22098Y93218
X41656Y93218
X2540Y101346
X22098Y101346
X41656Y101346
X2540Y109474
X22098Y109474
X41656Y109474
X2540Y117602
X22098Y117602
X41656Y117602
X2540Y125730
X22098Y125730
X41656Y125730
X2540Y133858
X22098Y133858
X41656Y133858
X2540Y141986
X22098Y141986
X41656Y141986
X2540Y150114
X22098Y150114
T2
X44196Y152654
X5080Y1270
X5080Y6350
X24638Y1270
X24638Y6350
X44196Y1270
X44196Y6350
X5080Y9398
X5080Y14478
X24638Y9398
X24638Y14478
X44196Y9398
X44196Y14478
X5080Y17526
X5080Y22606
X24638Y17526
X24638Y22606
X44196Y17526
X44196Y22606
X5080Y25654
X5080Y30734
X24638Y25654
X24638Y30734
X44196Y25654
X44196Y30734
X5080Y33782
X5080Y38862
X24638Y33782
X24638Y38862
X44196Y33782
X44196Y38862
X5080Y41910
X5080Y46990
X24638Y41910
X24638Y46990
X44196Y41910
X44196Y46990
X5080Y50038
X5080Y55118
X24638Y50038
X24638Y55118
X44196Y50038
X44196Y55118
X5080Y58166
X5080Y63246
X24638Y58166
X24638Y63246
X44196Y58166
X44196Y63246
X5080Y66294
X5080Y71374
X24638Y66294
X24638Y71374
X44196Y66294
X44196Y71374
X5080Y74422
X5080Y79502
X24638Y74422
X24638Y79502
X44196Y74422
X44196Y79502
X5080Y82550
X5080Y87630
X24638Y82550
X24638Y87630
X44196Y82550
X44196Y87630
X5080Y90678
X5080Y95758
X24638Y90678
X24638Y95758
X44196Y90678
X44196Y95758
X5080Y98806
X5080Y103886
X24638Y98806
X24638Y103886
X44196Y98806
X44196Y103886
X5080Y106934
X5080Y112014
X24638Y106934
X24638Y112014
X44196Y106934
X44196Y112014
X5080Y115062
X5080Y120142
X24638Y115062
X24638Y120142
X44196Y115062
X44196Y120142
X5080Y123190
X5080Y128270
X24638Y123190
X24638Y128270
X44196Y123190
X44196Y128270
X5080Y131318
X5080Y136398
X24638Y131318
X24638Y136398
X44196Y131318
X44196Y136398
X5080Y139446
X5080Y144526
X24638Y139446
X24638Y144526
X44196Y139446
X44196Y144526
X5080Y147574
X5080Y152654
X24638Y147574
X24638Y152654
X44196Y147574
T3
X25349Y18542
X35458Y16916
X34544Y22504
X27686Y22301
X29947Y20066
X35611Y21539
X36424Y20574
X35509Y20066
X32563Y22403
X30480Y17399
X30378Y23165
X28194Y21742
X25908Y20066
X27788Y18390
X32283Y18288
X52629Y17805
X44653Y20015
X48108Y18339
X44907Y18542
X55016Y16916
X54102Y22504
X47244Y22301
X49505Y20066
X55169Y21539
X55982Y20574
X55067Y20066
X52121Y22403
X50038Y17399
X49936Y23165
X47752Y21742
X45466Y20066
X47346Y18390
X51841Y18288
X13513Y25933
X5537Y28143
X8992Y26467
X11532Y31242
X5791Y26670
X15900Y25044
X14986Y30632
X8128Y30429
X10389Y28194
X16053Y29667
X16866Y28702
X15951Y28194
X13005Y30531
X10922Y25527
X10820Y31293
X8636Y29870
X6350Y28194
X8230Y26518
X12725Y26416
X33071Y25933
X25095Y28143
X28550Y26467
X31090Y31242
X25349Y26670
X35458Y25044
X34544Y30632
X27686Y30429
X29947Y28194
X35611Y29667
X36424Y28702
X35509Y28194
X32563Y30531
X30480Y25527
X30378Y31293
X28194Y29870
X25908Y28194
X27788Y26518
X32283Y26416
X52629Y25933
X44653Y28143
X48108Y26467
X50648Y31242
X44907Y26670
X55016Y25044
X54102Y30632
X47244Y30429
X49505Y28194
X55169Y29667
X55982Y28702
X55067Y28194
X52121Y30531
X50038Y25527
X49936Y31293
X47752Y29870
X45466Y28194
X47346Y26518
X51841Y26416
X13513Y34061
X5537Y36271
X8992Y34595
X11532Y39370
X5791Y34798
X15900Y33172
X14986Y38760
X8128Y38557
X10389Y36322
X16053Y37795
X16866Y36830
X15951Y36322
X13005Y38659
X10922Y33655
X10820Y39421
X8636Y37998
X6350Y36322
X8230Y34646
X12725Y34544
X33071Y34061
X25095Y36271
X28550Y34595
X31090Y39370
X25349Y34798
X35458Y33172
X34544Y38760
X27686Y38557
X29947Y36322
X35611Y37795
X36424Y36830
X35509Y36322
X32563Y38659
X30480Y33655
X30378Y39421
X28194Y37998
X25908Y36322
X27788Y34646
X32283Y34544
X52629Y34061
X44653Y36271
X48108Y34595
X50648Y39370
X44907Y34798
X55016Y33172
X54102Y38760
X47244Y38557
X49505Y36322
X55169Y37795
X55982Y36830
X55067Y36322
X52121Y38659
X50038Y33655
X49936Y39421
X47752Y37998
X45466Y36322
X47346Y34646
X51841Y34544
X13513Y42189
X5537Y44399
X8992Y42723
X11532Y47498
X5791Y42926
X15900Y41300
X14986Y46888
X8128Y46685
X10389Y44450
X16053Y45923
X16866Y44958
X15951Y44450
X13005Y46787
X10922Y41783
X10820Y47549
X8636Y46126
X6350Y44450
X8230Y42774
X12725Y42672
X33071Y42189
X25095Y44399
X28550Y42723
X31090Y47498
X25349Y42926
X35458Y41300
X34544Y46888
X27686Y46685
X29947Y44450
X35611Y45923
X36424Y44958
X35509Y44450
X32563Y46787
X30480Y41783
X30378Y47549
X28194Y46126
X25908Y44450
X27788Y42774
X32283Y42672
X52629Y42189
X44653Y44399
X48108Y42723
X50648Y47498
X44907Y42926
X55016Y41300
X54102Y46888
X47244Y46685
X49505Y44450
X55169Y45923
X55982Y44958
X55067Y44450
X52121Y46787
X50038Y41783
X49936Y47549
X47752Y46126
X45466Y44450
X47346Y42774
X51841Y42672
X13513Y50317
X5537Y52527
X8992Y50851
X11532Y55626
X5791Y51054
X15900Y49428
X14986Y55016
X8128Y54813
X10389Y52578
X16053Y54051
X16866Y53086
X15951Y52578
X13005Y54915
X10922Y49911
X10820Y55677
X8636Y54254
X6350Y52578
X8230Y50902
X12725Y50800
X33071Y50317
X25095Y52527
X28550Y50851
X31090Y55626
X25349Y51054
X35458Y49428
X34544Y55016
X27686Y54813
X29947Y52578
X35611Y54051
X36424Y53086
X35509Y52578
X32563Y54915
X30480Y49911
X30378Y55677
X28194Y54254
X25908Y52578
X27788Y50902
X32283Y50800
X52629Y50317
X44653Y52527
X48108Y50851
X50648Y55626
X44907Y51054
X55016Y49428
X54102Y55016
X47244Y54813
X49505Y52578
X55169Y54051
X55982Y53086
X55067Y52578
X52121Y54915
X50038Y49911
X49936Y55677
X47752Y54254
X45466Y52578
X47346Y50902
X51841Y50800
X13513Y58445
X5537Y60655
X8992Y58979
X11532Y63754
X5791Y59182
X15900Y57556
X14986Y63144
X8128Y62941
X10389Y60706
X16053Y62179
X16866Y61214
X15951Y60706
X13005Y63043
X10922Y58039
X10820Y63805
X8636Y62382
X6350Y60706
X8230Y59030
X12725Y58928
X33071Y58445
X25095Y60655
X28550Y58979
X31090Y63754
X25349Y59182
X35458Y57556
X34544Y63144
X27686Y62941
X29947Y60706
X35611Y62179
X36424Y61214
X35509Y60706
X32563Y63043
X30480Y58039
X30378Y63805
X28194Y62382
X25908Y60706
X27788Y59030
X32283Y58928
X52629Y58445
X44653Y60655
X48108Y58979
X50648Y63754
X44907Y59182
X55016Y57556
X54102Y63144
X47244Y62941
X49505Y60706
X55169Y62179
X55982Y61214
X55067Y60706
X52121Y63043
X50038Y58039
X49936Y63805
X47752Y62382
X45466Y60706
X47346Y59030
X51841Y58928
X13513Y66573
X5537Y68783
X8992Y67107
X11532Y71882
X5791Y67310
X15900Y65684
X14986Y71272
X8128Y71069
X10389Y68834
X16053Y70307
X16866Y69342
X15951Y68834
X13005Y71171
X10922Y66167
X10820Y71933
X8636Y70510
X6350Y68834
X8230Y67158
X12725Y67056
X33071Y66573
X25095Y68783
X28550Y67107
X31090Y71882
X25349Y67310
X35458Y65684
X34544Y71272
X27686Y71069
X29947Y68834
X35611Y70307
X36424Y69342
X35509Y68834
X32563Y71171
X30480Y66167
X30378Y71933
X28194Y70510
X25908Y68834
X27788Y67158
X32283Y67056
X52629Y66573
X44653Y68783
X48108Y67107
X50648Y71882
X44907Y67310
X55016Y65684
X54102Y71272
X47244Y71069
X49505Y68834
X55169Y70307
X55982Y69342
X55067Y68834
X52121Y71171
X50038Y66167
X49936Y71933
X47752Y70510
X45466Y68834
X47346Y67158
X51841Y67056
X13513Y74701
X5537Y76911
X8992Y75235
X11532Y80010
X5791Y75438
X15900Y73812
X14986Y79400
X8128Y79197
X10389Y76962
X16053Y78435
X16866Y77470
X15951Y76962
X13005Y79299
X10922Y74295
X10820Y80061
X8636Y78638
X6350Y76962
X8230Y75286
X12725Y75184
X33071Y74701
X25095Y76911
X28550Y75235
X31090Y80010
X25349Y75438
X35458Y73812
X34544Y79400
X27686Y79197
X29947Y76962
X35611Y78435
X36424Y77470
X35509Y76962
X32563Y79299
X30480Y74295
X30378Y80061
X28194Y78638
X25908Y76962
X27788Y75286
X32283Y75184
X52629Y74701
X44653Y76911
X48108Y75235
X50648Y80010
X44907Y75438
X55016Y73812
X54102Y79400
X47244Y79197
X49505Y76962
X55169Y78435
X55982Y77470
X55067Y76962
X52121Y79299
X50038Y74295
X49936Y80061
X47752Y78638
X45466Y76962
X47346Y75286
X51841Y75184
X13513Y82829
X5537Y85039
X8992Y83363
X11532Y88138
X5791Y83566
X15900Y81940
X14986Y87528
X8128Y87325
X10389Y85090
X16053Y86563
X16866Y85598
X15951Y85090
X13005Y87427
X10922Y82423
X10820Y88189
X8636Y86766
X6350Y85090
X8230Y83414
X12725Y83312
X33071Y82829
X25095Y85039
X28550Y83363
X31090Y88138
X25349Y83566
X35458Y81940
X34544Y87528
X27686Y87325
X29947Y85090
X35611Y86563
X36424Y85598
X35509Y85090
X32563Y87427
X30480Y82423
X30378Y88189
X28194Y86766
X25908Y85090
X27788Y83414
X32283Y83312
X52629Y82829
X44653Y85039
X48108Y83363
X50648Y88138
X44907Y83566
X55016Y81940
X54102Y87528
X47244Y87325
X49505Y85090
X55169Y86563
X55982Y85598
X55067Y85090
X52121Y87427
X50038Y82423
X50648Y23114
X47752Y86766
X45466Y85090
X47346Y83414
X51841Y83312
X13513Y90957
X5537Y93167
X8992Y91491
X11532Y96266
X5791Y91694
X15900Y90068
X14986Y95656
X8128Y95453
X10389Y93218
X16053Y94691
X16866Y93726
X15951Y93218
X13005Y95555
X10922Y90551
X10820Y96317
X8636Y94894
X6350Y93218
X8230Y91542
X12725Y91440
X33071Y90957
X25095Y93167
X28550Y91491
X31090Y96266
X25349Y91694
X35458Y90068
X34544Y95656
X27686Y95453
X29947Y93218
X35611Y94691
X36424Y93726
X35509Y93218
X32563Y95555
X30480Y90551
X30378Y96317
X28194Y94894
X25908Y93218
X27788Y91542
X32283Y91440
X52629Y90957
X44653Y93167
X48108Y91491
X50648Y96266
X44907Y91694
X55016Y90068
X54102Y95656
X47244Y95453
X49505Y93218
X55169Y94691
X55982Y93726
X55067Y93218
X52121Y95555
X50038Y90551
X49936Y96317
X47752Y94894
X45466Y93218
X47346Y91542
X51841Y91440
X13513Y99085
X5537Y101295
X8992Y99619
X11532Y104394
X5791Y99822
X15900Y98196
X14986Y103784
X8128Y103581
X10389Y101346
X16053Y102819
X16866Y101854
X15951Y101346
X13005Y103683
X10922Y98679
X10820Y104445
X8636Y103022
X6350Y101346
X8230Y99670
X12725Y99568
X33071Y99085
X25095Y101295
X28550Y99619
X31090Y104394
X25349Y99822
X35458Y98196
X34544Y103784
X27686Y103581
X29947Y101346
X35611Y102819
X36424Y101854
X35509Y101346
X32563Y103683
X30480Y98679
X30378Y104445
X28194Y103022
X25908Y101346
X27788Y99670
X32283Y99568
X52629Y99085
X44653Y101295
X48108Y99619
X50648Y104394
X44907Y99822
X55016Y98196
X54102Y103784
X47244Y103581
X49505Y101346
X55169Y102819
X55982Y101854
X55067Y101346
X52121Y103683
X50038Y98679
X49936Y104445
X47752Y103022
X45466Y101346
X47346Y99670
X51841Y99568
X13513Y107213
X5537Y109423
X8992Y107747
X11532Y112522
X5791Y107950
X15900Y106324
X14986Y111912
X8128Y111709
X10389Y109474
X16053Y110947
X16866Y109982
X15951Y109474
X13005Y111811
X10922Y106807
X10820Y112573
X8636Y111150
X6350Y109474
X8230Y107798
X12725Y107696
X33071Y107213
X25095Y109423
X28550Y107747
X31090Y112522
X25349Y107950
X35458Y106324
X34544Y111912
X27686Y111709
X29947Y109474
X35611Y110947
X36424Y109982
X35509Y109474
X32563Y111811
X30480Y106807
X30378Y112573
X28194Y111150
X25908Y109474
X27788Y107798
X32283Y107696
X52629Y107213
X44653Y109423
X48108Y107747
X50648Y112522
X44907Y107950
X55016Y106324
X54102Y111912
X47244Y111709
X49505Y109474
X55169Y110947
X55982Y109982
X55067Y109474
X52121Y111811
X50038Y106807
X49936Y112573
X47752Y111150
X45466Y109474
X47346Y107798
X51841Y107696
X13513Y115341
X5537Y117551
X8992Y115875
X11532Y120650
X5791Y116078
X15900Y114452
X14986Y120040
X8128Y119837
X10389Y117602
X16053Y119075
X16866Y118110
X15951Y117602
X13005Y119939
X10922Y114935
X10820Y120701
X8636Y119278
X6350Y117602
X8230Y115926
X12725Y115824
X33071Y115341
X25095Y117551
X28550Y115875
X31090Y120650
X25349Y116078
X35458Y114452
X34544Y120040
X27686Y119837
X29947Y117602
X35611Y119075
X36424Y118110
X35509Y117602
X32563Y119939
X30480Y114935
X30378Y120701
X28194Y119278
X25908Y117602
X27788Y115926
X32283Y115824
X52629Y115341
X44653Y117551
X48108Y115875
X50648Y120650
X44907Y116078
X55016Y114452
X54102Y120040
X47244Y119837
X49505Y117602
X55169Y119075
X55982Y118110
X55067Y117602
X52121Y119939
X50038Y114935
X49936Y120701
X47752Y119278
X45466Y117602
X47346Y115926
X51841Y115824
X13513Y123469
X5537Y125679
X8992Y124003
X11532Y128778
X5791Y124206
X15900Y122580
X14986Y128168
X8128Y127965
X10389Y125730
X16053Y127203
X16866Y126238
X15951Y125730
X13005Y128067
X10922Y123063
X10820Y128829
X8636Y127406
X6350Y125730
X8230Y124054
X12725Y123952
X33071Y123469
X25095Y125679
X28550Y124003
X31090Y128778
X25349Y124206
X35458Y122580
X34544Y128168
X27686Y127965
X29947Y125730
X35611Y127203
X36424Y126238
X35509Y125730
X32563Y128067
X30480Y123063
X30378Y128829
X28194Y127406
X25908Y125730
X27788Y124054
X32283Y123952
X52629Y123469
X44653Y125679
X48108Y124003
X50648Y128778
X44907Y124206
X55016Y122580
X54102Y128168
X47244Y127965
X49505Y125730
X55169Y127203
X55982Y126238
X55067Y125730
X52121Y128067
X50038Y123063
X49936Y128829
X47752Y127406
X45466Y125730
X47346Y124054
X51841Y123952
X13513Y131597
X5537Y133807
X8992Y132131
X11532Y136906
X5791Y132334
X15900Y130708
X14986Y136296
X8128Y136093
X10389Y133858
X16053Y135331
X16866Y134366
X15951Y133858
X13005Y136195
X10922Y131191
X10820Y136957
X8636Y135534
X6350Y133858
X8230Y132182
X12725Y132080
X33071Y131597
X25095Y133807
X28550Y132131
X31090Y136906
X35458Y130708
X34544Y136296
X27686Y136093
X29947Y133858
X35611Y135331
X36424Y134366
X35509Y133858
X32563Y136195
X30480Y131191
X30378Y136957
X28194Y135534
X25908Y133858
X27788Y132182
X32283Y132080
X52629Y131597
X44653Y133807
X48108Y132131
X50648Y136906
X44907Y132334
X55016Y130708
X54102Y136296
X47244Y136093
X49505Y133858
X55169Y135331
X55982Y134366
X55067Y133858
X52121Y136195
X50038Y131191
X49936Y136957
X47752Y135534
X45466Y133858
X47346Y132182
X51841Y132080
X13513Y139725
X5537Y141935
X8992Y140259
X11532Y145034
X5791Y140462
X15900Y138836
X14986Y144424
X8128Y144221
X10389Y141986
X16053Y143459
X16866Y142494
X15951Y141986
X13005Y144323
X10922Y139319
X10820Y145085
X8636Y143662
X6350Y141986
X8230Y140310
X12725Y140208
X33071Y139725
X25095Y141935
X28550Y140259
X31090Y145034
X25349Y140462
X35458Y138836
X34544Y144424
X27686Y144221
X29947Y141986
X35611Y143459
X36424Y142494
X35509Y141986
X32563Y144323
X30480Y139319
X30378Y145085
X28194Y143662
X25908Y141986
X27788Y140310
X32283Y140208
X52629Y139725
X44653Y141935
X48108Y140259
X50648Y145034
X44907Y140462
X55016Y138836
X54102Y144424
X47244Y144221
X49505Y141986
X55169Y143459
X55982Y142494
X55067Y141986
X52121Y144323
X50038Y139319
X49936Y145085
X47752Y143662
X45466Y141986
X47346Y140310
X51841Y140208
X13513Y147853
X5537Y150063
X8992Y148387
X11532Y153162
X5791Y148590
X15900Y146964
X14986Y152552
X8128Y152349
X10389Y150114
X16053Y151587
X16866Y150622
X15951Y150114
X13005Y152451
X10922Y147447
X10820Y153213
X8636Y151790
X6350Y150114
X8230Y148438
X12725Y148336
X33071Y147853
X25095Y150063
X28550Y148387
X31090Y153162
X25349Y148590
X35458Y146964
X34544Y152552
X27686Y152349
X29947Y150114
X35611Y151587
X36424Y150622
X35509Y150114
X32563Y152451
X30480Y147447
X30378Y153213
X28194Y151790
X25908Y150114
X27788Y148438
X32283Y148336
X52629Y147853
X44653Y150063
X48108Y148387
X50648Y153162
X44907Y148590
X55016Y146964
X54102Y152552
X47244Y152349
X49505Y150114
X55169Y151587
X55982Y150622
X55067Y150114
X52121Y152451
X50038Y147447
X49936Y153213
X47752Y151790
X45466Y150114
X47346Y148438
X51841Y148336
X49936Y88189
X13513Y1549
X5537Y3759
X8992Y2083
X11532Y6858
X5791Y2286
X15900Y660
X14986Y6248
X8128Y6045
X10389Y3810
X16053Y5283
X16866Y4318
X15951Y3810
X13005Y6147
X10922Y1143
X10820Y6909
X8636Y5486
X6350Y3810
X8230Y2134
X12725Y2032
X33071Y1549
X25095Y3759
X28550Y2083
X31090Y6858
X25349Y2286
X35458Y660
X34544Y6248
X27686Y6045
X29947Y3810
X35611Y5283
X36424Y4318
X35509Y3810
X32563Y6147
X30480Y1143
X30378Y6909
X28194Y5486
X25908Y3810
X27788Y2134
X32283Y2032
X52629Y1549
X44653Y3759
X48108Y2083
X50648Y6858
X44907Y2286
X55016Y660
X54102Y6248
X47244Y6045
X49505Y3810
X55169Y5283
X55982Y4318
X55067Y3810
X52121Y6147
X50038Y1143
X49936Y6909
X47752Y5486
X45466Y3810
X47346Y2134
X51841Y2032
X13513Y9677
X5537Y11887
X8992Y10211
X11532Y14986
X5791Y10414
X15900Y8788
X14986Y14376
X8128Y14173
X10389Y11938
X16053Y13411
X16866Y12446
X15951Y11938
X13005Y14275
X10922Y9271
X10820Y15037
X8636Y13614
X6350Y11938
X8230Y10262
X12725Y10160
X33071Y9677
X25095Y11887
X28550Y10211
X31090Y14986
X25349Y10414
X35458Y8788
X34544Y14376
X27686Y14173
X29947Y11938
X35611Y13411
X36424Y12446
X35509Y11938
X32563Y14275
X30480Y9271
X30378Y15037
X28194Y13614
X25908Y11938
X27788Y10262
X32283Y10160
X52629Y9677
X44653Y11887
X48108Y10211
X50648Y14986
X44907Y10414
X55016Y8788
X54102Y14376
X47244Y14173
X49505Y11938
X55169Y13411
X55982Y12446
X55067Y11938
X52121Y14275
X50038Y9271
X49936Y15037
X47752Y13614
X45466Y11938
X47346Y10262
X51841Y10160
X13513Y17805
X5537Y20015
X8992Y18339
X11532Y23114
X5791Y18542
X15900Y16916
X14986Y22504
X8128Y22301
X10389Y20066
X16053Y21539
X16866Y20574
X15951Y20066
X13005Y22403
X10922Y17399
X10820Y23165
X8636Y21742
X6350Y20066
X8230Y18390
X12725Y18288
X33071Y17805
X25095Y20015
X28550Y18339
X31090Y23114
X25349Y132334
T4
X28448Y85065
X8890Y85065
X48006Y76937
X28448Y76937
X8890Y76937
X48006Y68809
X28448Y68809
X48006Y117577
X8890Y68809
X48006Y60681
X28448Y60681
X8890Y60681
X48006Y52553
X28448Y52553
X8890Y52553
X48006Y44425
X28448Y44425
X8890Y44425
X48006Y36297
X28448Y36297
X8890Y36297
X48006Y28169
X28448Y28169
X8890Y28169
X48006Y20041
X28448Y20041
X8890Y20041
X48006Y11913
X28448Y11913
X8890Y11913
X48006Y3785
X28448Y3785
X8890Y3785
X48006Y141961
X48006Y133833
X28448Y141961
X8890Y141961
X48006Y109449
X28448Y125705
X8890Y93193
X28448Y117577
X8890Y117577
X48006Y93193
X28448Y93193
X48006Y125705
X48006Y101321
X48006Y150089
X8890Y125705
X28448Y109449
X48006Y85065
X28448Y101321
X28448Y150089
X8890Y133833
X8890Y109449
X8890Y101321
X8890Y150089
X28448Y133833
M30