M48
;GenerationSoftware,Autodesk,EAGLE,9.6.2*%
;CreationDate,2022-11-07T22:25:13Z*%
FMAT,2
ICI,OFF
METRIC,TZ,000.000
T4C0.203
T3C0.305
T2C0.700
T1C3.048
%
G90
M71
T1
X52578Y36068
X60706Y75184
X11938Y75184
X3810Y16510
X11938Y16510
X11938Y36068
X20066Y36068
X28194Y55626
X36322Y55626
X36322Y94742
X44450Y75184
X20066Y75184
X20066Y94742
X20066Y55626
X44450Y55626
X60706Y16510
X60706Y153416
X3810Y94742
X11938Y55626
X52578Y55626
X44450Y36068
X3810Y36068
X28194Y75184
X3810Y55626
X52578Y75184
X60706Y55626
X28194Y36068
X20066Y16510
X44450Y16510
X28194Y94742
X60706Y36068
X3810Y75184
X28194Y16510
X11938Y94742
X52578Y16510
X36322Y75184
X36322Y36068
X36322Y16510
X44450Y94742
X52578Y94742
X60706Y94742
X3810Y114300
X11938Y114300
X20066Y114300
X28194Y114300
X36322Y114300
X44450Y114300
X52578Y114300
X60706Y114300
X3810Y133858
X11938Y133858
X20066Y133858
X28194Y133858
X36322Y133858
X44450Y133858
X52578Y133858
X60706Y133858
X3810Y153416
X11938Y153416
X20066Y153416
X28194Y153416
X36322Y153416
X44450Y153416
X52578Y153416
T2
X63246Y150876
X1270Y13970
X6350Y13970
X9398Y13970
X14478Y13970
X17526Y13970
X22606Y13970
X25654Y13970
X30734Y13970
X33782Y13970
X38862Y13970
X41910Y13970
X46990Y13970
X50038Y13970
X55118Y13970
X58166Y13970
X63246Y13970
X1270Y33528
X6350Y33528
X9398Y33528
X14478Y33528
X17526Y33528
X22606Y33528
X25654Y33528
X30734Y33528
X33782Y33528
X38862Y33528
X41910Y33528
X46990Y33528
X50038Y33528
X55118Y33528
X58166Y33528
X63246Y33528
X1270Y53086
X6350Y53086
X9398Y53086
X14478Y53086
X17526Y53086
X22606Y53086
X25654Y53086
X30734Y53086
X33782Y53086
X38862Y53086
X41910Y53086
X46990Y53086
X50038Y53086
X55118Y53086
X58166Y53086
X63246Y53086
X1270Y72644
X6350Y72644
X9398Y72644
X14478Y72644
X17526Y72644
X22606Y72644
X25654Y72644
X30734Y72644
X33782Y72644
X38862Y72644
X41910Y72644
X46990Y72644
X50038Y72644
X55118Y72644
X58166Y72644
X63246Y72644
X1270Y92202
X6350Y92202
X9398Y92202
X14478Y92202
X17526Y92202
X22606Y92202
X25654Y92202
X30734Y92202
X33782Y92202
X38862Y92202
X41910Y92202
X46990Y92202
X50038Y92202
X55118Y92202
X58166Y92202
X63246Y92202
X1270Y111760
X6350Y111760
X9398Y111760
X14478Y111760
X17526Y111760
X22606Y111760
X25654Y111760
X30734Y111760
X33782Y111760
X38862Y111760
X41910Y111760
X46990Y111760
X50038Y111760
X55118Y111760
X58166Y111760
X63246Y111760
X1270Y131318
X6350Y131318
X9398Y131318
X14478Y131318
X17526Y131318
X22606Y131318
X25654Y131318
X30734Y131318
X33782Y131318
X38862Y131318
X41910Y131318
X46990Y131318
X50038Y131318
X55118Y131318
X58166Y131318
X63246Y131318
X1270Y150876
X6350Y150876
X9398Y150876
X14478Y150876
X17526Y150876
X22606Y150876
X25654Y150876
X30734Y150876
X33782Y150876
X38862Y150876
X41910Y150876
X46990Y150876
X50038Y150876
X55118Y150876
X58166Y150876
T3
X2083Y29616
X6858Y27076
X2286Y32817
X660Y22708
X6248Y23622
X6045Y30480
X3810Y28219
X5283Y22555
X4318Y21742
X3810Y22657
X6147Y25603
X1143Y27686
X6909Y27788
X5486Y29972
X3810Y32258
X2134Y30378
X2032Y25883
X9677Y25095
X11887Y33071
X10211Y29616
X14986Y27076
X8788Y22708
X14376Y23622
X14173Y30480
X11938Y28219
X13411Y22555
X12446Y21742
X11938Y22657
X14275Y25603
X9271Y27686
X15037Y27788
X13614Y29972
X11938Y32258
X10262Y30378
X10160Y25883
X17805Y25095
X20015Y33071
X18339Y29616
X23114Y27076
X18542Y32817
X16916Y22708
X22504Y23622
X22301Y30480
X20066Y28219
X21539Y22555
X20574Y21742
X20066Y22657
X22403Y25603
X17399Y27686
X23165Y27788
X21742Y29972
X20066Y32258
X18390Y30378
X18288Y25883
X25933Y25095
X28143Y33071
X26467Y29616
X31242Y27076
X26670Y32817
X25044Y22708
X30632Y23622
X30429Y30480
X28194Y28219
X29667Y22555
X28702Y21742
X28194Y22657
X30531Y25603
X25527Y27686
X31293Y27788
X29870Y29972
X28194Y32258
X26518Y30378
X26416Y25883
X34061Y25095
X36271Y33071
X34595Y29616
X39370Y27076
X34798Y32817
X33172Y22708
X38760Y23622
X38557Y30480
X36322Y28219
X37795Y22555
X36830Y21742
X36322Y22657
X38659Y25603
X33655Y27686
X39421Y27788
X37998Y29972
X36322Y32258
X34646Y30378
X34544Y25883
X42189Y25095
X44399Y33071
X42723Y29616
X47498Y27076
X42926Y32817
X41300Y22708
X46888Y23622
X46685Y30480
X44450Y28219
X45923Y22555
X44958Y21742
X44450Y22657
X46787Y25603
X41783Y27686
X47549Y27788
X46126Y29972
X44450Y32258
X42774Y30378
X42672Y25883
X50317Y25095
X52527Y33071
X50851Y29616
X55626Y27076
X51054Y32817
X49428Y22708
X55016Y23622
X54813Y30480
X52578Y28219
X54051Y22555
X53086Y21742
X52578Y22657
X54915Y25603
X49911Y27686
X55677Y27788
X54254Y29972
X52578Y32258
X50902Y30378
X50800Y25883
X58445Y25095
X60655Y33071
X58979Y29616
X63754Y27076
X59182Y32817
X57556Y22708
X63144Y23622
X62941Y30480
X60706Y28219
X62179Y22555
X61214Y21742
X60706Y22657
X63043Y25603
X58039Y27686
X63805Y27788
X62382Y29972
X60706Y32258
X59030Y30378
X58928Y25883
X1549Y44653
X3759Y52629
X2083Y49174
X6858Y46634
X2286Y52375
X660Y42266
X6248Y43180
X6045Y50038
X3810Y47777
X5283Y42113
X4318Y41300
X3810Y42215
X6147Y45161
X1143Y47244
X6909Y47346
X5486Y49530
X3810Y51816
X2134Y49936
X2032Y45441
X9677Y44653
X11887Y52629
X10211Y49174
X14986Y46634
X10414Y52375
X8788Y42266
X14376Y43180
X14173Y50038
X11938Y47777
X13411Y42113
X12446Y41300
X11938Y42215
X14275Y45161
X9271Y47244
X15037Y47346
X13614Y49530
X11938Y51816
X10262Y49936
X10160Y45441
X17805Y44653
X20015Y52629
X18339Y49174
X23114Y46634
X18542Y52375
X16916Y42266
X22504Y43180
X22301Y50038
X20066Y47777
X21539Y42113
X20574Y41300
X20066Y42215
X22403Y45161
X17399Y47244
X23165Y47346
X21742Y49530
X20066Y51816
X18390Y49936
X18288Y45441
X25933Y44653
X28143Y52629
X26467Y49174
X31242Y46634
X26670Y52375
X25044Y42266
X30632Y43180
X30429Y50038
X28194Y47777
X29667Y42113
X28702Y41300
X28194Y42215
X30531Y45161
X25527Y47244
X31293Y47346
X29870Y49530
X28194Y51816
X26518Y49936
X26416Y45441
X34061Y44653
X36271Y52629
X34595Y49174
X39370Y46634
X34798Y52375
X33172Y42266
X38760Y43180
X38557Y50038
X36322Y47777
X37795Y42113
X36830Y41300
X36322Y42215
X38659Y45161
X33655Y47244
X39421Y47346
X37998Y49530
X36322Y51816
X34646Y49936
X34544Y45441
X42189Y44653
X44399Y52629
X42723Y49174
X47498Y46634
X42926Y52375
X41300Y42266
X46888Y43180
X46685Y50038
X44450Y47777
X45923Y42113
X44958Y41300
X44450Y42215
X46787Y45161
X41783Y47244
X47549Y47346
X46126Y49530
X44450Y51816
X42774Y49936
X42672Y45441
X50317Y44653
X52527Y52629
X50851Y49174
X55626Y46634
X51054Y52375
X49428Y42266
X55016Y43180
X54813Y50038
X52578Y47777
X54051Y42113
X53086Y41300
X52578Y42215
X54915Y45161
X49911Y47244
X55677Y47346
X54254Y49530
X52578Y51816
X50902Y49936
X50800Y45441
X58445Y44653
X60655Y52629
X58979Y49174
X63754Y46634
X59182Y52375
X57556Y42266
X63144Y43180
X62941Y50038
X60706Y47777
X62179Y42113
X61214Y41300
X60706Y42215
X63043Y45161
X58039Y47244
X63805Y47346
X62382Y49530
X60706Y51816
X59030Y49936
X58928Y45441
X1549Y64211
X3759Y72187
X2083Y68732
X6858Y66192
X2286Y71933
X660Y61824
X6248Y62738
X6045Y69596
X3810Y67335
X5283Y61671
X4318Y60858
X3810Y61773
X6147Y64719
X1143Y66802
X6909Y66904
X5486Y69088
X3810Y71374
X2134Y69494
X2032Y64999
X9677Y64211
X11887Y72187
X10211Y68732
X14986Y66192
X10414Y71933
X8788Y61824
X14376Y62738
X14173Y69596
X11938Y67335
X13411Y61671
X12446Y60858
X11938Y61773
X14275Y64719
X9271Y66802
X15037Y66904
X13614Y69088
X11938Y71374
X10262Y69494
X10160Y64999
X17805Y64211
X20015Y72187
X18339Y68732
X23114Y66192
X18542Y71933
X16916Y61824
X22504Y62738
X22301Y69596
X20066Y67335
X21539Y61671
X20574Y60858
X20066Y61773
X22403Y64719
X17399Y66802
X23165Y66904
X21742Y69088
X20066Y71374
X18390Y69494
X18288Y64999
X25933Y64211
X28143Y72187
X26467Y68732
X31242Y66192
X26670Y71933
X25044Y61824
X30632Y62738
X30429Y69596
X28194Y67335
X29667Y61671
X28702Y60858
X28194Y61773
X30531Y64719
X25527Y66802
X31293Y66904
X29870Y69088
X28194Y71374
X26518Y69494
X26416Y64999
X34061Y64211
X36271Y72187
X34595Y68732
X39370Y66192
X34798Y71933
X33172Y61824
X38760Y62738
X38557Y69596
X36322Y67335
X37795Y61671
X36830Y60858
X36322Y61773
X38659Y64719
X33655Y66802
X39421Y66904
X37998Y69088
X36322Y71374
X34646Y69494
X34544Y64999
X42189Y64211
X44399Y72187
X42723Y68732
X47498Y66192
X42926Y71933
X41300Y61824
X46888Y62738
X46685Y69596
X44450Y67335
X45923Y61671
X44958Y60858
X44450Y61773
X46787Y64719
X41783Y66802
X47549Y66904
X46126Y69088
X44450Y71374
X42774Y69494
X42672Y64999
X50317Y64211
X52527Y72187
X50851Y68732
X55626Y66192
X51054Y71933
X49428Y61824
X55016Y62738
X54813Y69596
X52578Y67335
X54051Y61671
X53086Y60858
X52578Y61773
X54915Y64719
X49911Y66802
X55677Y66904
X54254Y69088
X52578Y71374
X50902Y69494
X50800Y64999
X58445Y64211
X60655Y72187
X58979Y68732
X63754Y66192
X59182Y71933
X57556Y61824
X63144Y62738
X62941Y69596
X60706Y67335
X62179Y61671
X61214Y60858
X60706Y61773
X63043Y64719
X58039Y66802
X63805Y66904
X62382Y69088
X60706Y71374
X59030Y69494
X58928Y64999
X1549Y83769
X3759Y91745
X2083Y88290
X6858Y85750
X2286Y91491
X660Y81382
X6248Y82296
X6045Y89154
X3810Y86893
X5283Y81229
X4318Y80416
X3810Y81331
X6147Y84277
X1143Y86360
X6909Y86462
X5486Y88646
X3810Y90932
X2134Y89052
X2032Y84557
X9677Y83769
X11887Y91745
X10211Y88290
X14986Y85750
X10414Y91491
X8788Y81382
X14376Y82296
X14173Y89154
X11938Y86893
X13411Y81229
X12446Y80416
X11938Y81331
X14275Y84277
X9271Y86360
X15037Y86462
X13614Y88646
X11938Y90932
X10262Y89052
X10160Y84557
X17805Y83769
X20015Y91745
X18339Y88290
X23114Y85750
X18542Y91491
X16916Y81382
X22504Y82296
X22301Y89154
X20066Y86893
X21539Y81229
X20574Y80416
X20066Y81331
X22403Y84277
X17399Y86360
X23165Y86462
X21742Y88646
X20066Y90932
X18390Y89052
X18288Y84557
X25933Y83769
X28143Y91745
X26467Y88290
X31242Y85750
X26670Y91491
X25044Y81382
X30632Y82296
X30429Y89154
X28194Y86893
X29667Y81229
X28702Y80416
X28194Y81331
X30531Y84277
X25527Y86360
X31293Y86462
X29870Y88646
X28194Y90932
X26518Y89052
X26416Y84557
X34061Y83769
X36271Y91745
X34595Y88290
X39370Y85750
X34798Y91491
X33172Y81382
X38760Y82296
X38557Y89154
X36322Y86893
X37795Y81229
X36830Y80416
X36322Y81331
X38659Y84277
X33655Y86360
X39421Y86462
X10414Y32817
X36322Y90932
X34646Y89052
X34544Y84557
X42189Y83769
X44399Y91745
X42723Y88290
X47498Y85750
X42926Y91491
X41300Y81382
X46888Y82296
X46685Y89154
X44450Y86893
X45923Y81229
X44958Y80416
X44450Y81331
X46787Y84277
X41783Y86360
X47549Y86462
X46126Y88646
X44450Y90932
X42774Y89052
X42672Y84557
X50317Y83769
X52527Y91745
X50851Y88290
X55626Y85750
X51054Y91491
X49428Y81382
X55016Y82296
X54813Y89154
X52578Y86893
X54051Y81229
X53086Y80416
X52578Y81331
X54915Y84277
X49911Y86360
X55677Y86462
X54254Y88646
X52578Y90932
X50902Y89052
X50800Y84557
X58445Y83769
X60655Y91745
X58979Y88290
X63754Y85750
X59182Y91491
X57556Y81382
X63144Y82296
X62941Y89154
X60706Y86893
X62179Y81229
X61214Y80416
X60706Y81331
X63043Y84277
X58039Y86360
X63805Y86462
X62382Y88646
X60706Y90932
X59030Y89052
X58928Y84557
X1549Y103327
X3759Y111303
X2083Y107848
X6858Y105308
X2286Y111049
X660Y100940
X6248Y101854
X6045Y108712
X3810Y106451
X5283Y100787
X4318Y99974
X3810Y100889
X6147Y103835
X1143Y105918
X6909Y106020
X5486Y108204
X3810Y110490
X2134Y108610
X2032Y104115
X9677Y103327
X11887Y111303
X10211Y107848
X14986Y105308
X10414Y111049
X8788Y100940
X14376Y101854
X14173Y108712
X11938Y106451
X13411Y100787
X12446Y99974
X11938Y100889
X14275Y103835
X9271Y105918
X15037Y106020
X13614Y108204
X11938Y110490
X10262Y108610
X10160Y104115
X17805Y103327
X20015Y111303
X18339Y107848
X23114Y105308
X18542Y111049
X16916Y100940
X22504Y101854
X22301Y108712
X20066Y106451
X21539Y100787
X20574Y99974
X20066Y100889
X22403Y103835
X17399Y105918
X23165Y106020
X21742Y108204
X20066Y110490
X18390Y108610
X18288Y104115
X25933Y103327
X28143Y111303
X26467Y107848
X31242Y105308
X26670Y111049
X25044Y100940
X30632Y101854
X30429Y108712
X28194Y106451
X29667Y100787
X28702Y99974
X28194Y100889
X30531Y103835
X25527Y105918
X31293Y106020
X29870Y108204
X28194Y110490
X26518Y108610
X26416Y104115
X34061Y103327
X36271Y111303
X34595Y107848
X39370Y105308
X34798Y111049
X33172Y100940
X38760Y101854
X38557Y108712
X36322Y106451
X37795Y100787
X36830Y99974
X36322Y100889
X38659Y103835
X33655Y105918
X39421Y106020
X37998Y108204
X36322Y110490
X34646Y108610
X34544Y104115
X42189Y103327
X44399Y111303
X42723Y107848
X47498Y105308
X42926Y111049
X41300Y100940
X46888Y101854
X46685Y108712
X44450Y106451
X45923Y100787
X44958Y99974
X44450Y100889
X46787Y103835
X41783Y105918
X47549Y106020
X46126Y108204
X44450Y110490
X42774Y108610
X42672Y104115
X50317Y103327
X52527Y111303
X50851Y107848
X55626Y105308
X51054Y111049
X49428Y100940
X55016Y101854
X54813Y108712
X52578Y106451
X54051Y100787
X53086Y99974
X52578Y100889
X54915Y103835
X49911Y105918
X55677Y106020
X54254Y108204
X52578Y110490
X50902Y108610
X50800Y104115
X58445Y103327
X60655Y111303
X58979Y107848
X63754Y105308
X59182Y111049
X57556Y100940
X63144Y101854
X62941Y108712
X60706Y106451
X62179Y100787
X61214Y99974
X60706Y100889
X63043Y103835
X58039Y105918
X63805Y106020
X62382Y108204
X60706Y110490
X59030Y108610
X58928Y104115
X1549Y122885
X3759Y130861
X2083Y127406
X6858Y124866
X2286Y130607
X660Y120498
X6248Y121412
X6045Y128270
X3810Y126009
X5283Y120345
X4318Y119532
X3810Y120447
X6147Y123393
X1143Y125476
X6909Y125578
X5486Y127762
X3810Y130048
X2134Y128168
X2032Y123673
X9677Y122885
X11887Y130861
X10211Y127406
X14986Y124866
X10414Y130607
X8788Y120498
X14376Y121412
X14173Y128270
X11938Y126009
X13411Y120345
X12446Y119532
X11938Y120447
X14275Y123393
X9271Y125476
X15037Y125578
X13614Y127762
X11938Y130048
X10262Y128168
X10160Y123673
X17805Y122885
X20015Y130861
X18339Y127406
X23114Y124866
X18542Y130607
X16916Y120498
X22504Y121412
X22301Y128270
X20066Y126009
X21539Y120345
X20574Y119532
X20066Y120447
X22403Y123393
X17399Y125476
X23165Y125578
X21742Y127762
X20066Y130048
X18390Y128168
X18288Y123673
X25933Y122885
X28143Y130861
X26467Y127406
X31242Y124866
X26670Y130607
X25044Y120498
X30632Y121412
X30429Y128270
X28194Y126009
X29667Y120345
X28702Y119532
X28194Y120447
X30531Y123393
X25527Y125476
X31293Y125578
X29870Y127762
X28194Y130048
X26518Y128168
X26416Y123673
X34061Y122885
X36271Y130861
X34595Y127406
X39370Y124866
X34798Y130607
X33172Y120498
X38760Y121412
X38557Y128270
X36322Y126009
X37795Y120345
X36830Y119532
X36322Y120447
X38659Y123393
X33655Y125476
X39421Y125578
X37998Y127762
X36322Y130048
X34646Y128168
X34544Y123673
X42189Y122885
X44399Y130861
X42723Y127406
X47498Y124866
X42926Y130607
X41300Y120498
X46888Y121412
X46685Y128270
X44450Y126009
X45923Y120345
X44958Y119532
X44450Y120447
X46787Y123393
X41783Y125476
X47549Y125578
X46126Y127762
X44450Y130048
X42774Y128168
X42672Y123673
X50317Y122885
X52527Y130861
X50851Y127406
X55626Y124866
X51054Y130607
X49428Y120498
X55016Y121412
X54813Y128270
X52578Y126009
X54051Y120345
X53086Y119532
X52578Y120447
X54915Y123393
X49911Y125476
X55677Y125578
X54254Y127762
X52578Y130048
X50902Y128168
X50800Y123673
X58445Y122885
X60655Y130861
X58979Y127406
X59182Y130607
X57556Y120498
X63144Y121412
X62941Y128270
X60706Y126009
X62179Y120345
X61214Y119532
X60706Y120447
X63043Y123393
X58039Y125476
X63805Y125578
X62382Y127762
X60706Y130048
X59030Y128168
X58928Y123673
X1549Y142443
X3759Y150419
X2083Y146964
X6858Y144424
X2286Y150165
X660Y140056
X6248Y140970
X6045Y147828
X3810Y145567
X5283Y139903
X4318Y139090
X3810Y140005
X6147Y142951
X1143Y145034
X6909Y145136
X5486Y147320
X3810Y149606
X2134Y147726
X2032Y143231
X9677Y142443
X11887Y150419
X10211Y146964
X14986Y144424
X10414Y150165
X8788Y140056
X14376Y140970
X14173Y147828
X11938Y145567
X13411Y139903
X12446Y139090
X11938Y140005
X14275Y142951
X9271Y145034
X15037Y145136
X13614Y147320
X11938Y149606
X10262Y147726
X10160Y143231
X17805Y142443
X20015Y150419
X18339Y146964
X23114Y144424
X18542Y150165
X16916Y140056
X22504Y140970
X22301Y147828
X20066Y145567
X21539Y139903
X20574Y139090
X20066Y140005
X22403Y142951
X17399Y145034
X23165Y145136
X21742Y147320
X20066Y149606
X18390Y147726
X18288Y143231
X25933Y142443
X28143Y150419
X26467Y146964
X31242Y144424
X26670Y150165
X25044Y140056
X30632Y140970
X30429Y147828
X28194Y145567
X29667Y139903
X28702Y139090
X28194Y140005
X30531Y142951
X25527Y145034
X31293Y145136
X29870Y147320
X28194Y149606
X26518Y147726
X26416Y143231
X34061Y142443
X36271Y150419
X34595Y146964
X39370Y144424
X34798Y150165
X33172Y140056
X38760Y140970
X38557Y147828
X36322Y145567
X37795Y139903
X36830Y139090
X36322Y140005
X38659Y142951
X33655Y145034
X39421Y145136
X37998Y147320
X36322Y149606
X34646Y147726
X34544Y143231
X42189Y142443
X44399Y150419
X42723Y146964
X47498Y144424
X42926Y150165
X41300Y140056
X46888Y140970
X46685Y147828
X44450Y145567
X45923Y139903
X44958Y139090
X44450Y140005
X46787Y142951
X41783Y145034
X47549Y145136
X46126Y147320
X44450Y149606
X42774Y147726
X42672Y143231
X50317Y142443
X52527Y150419
X50851Y146964
X55626Y144424
X51054Y150165
X49428Y140056
X55016Y140970
X54813Y147828
X52578Y145567
X54051Y139903
X53086Y139090
X52578Y140005
X54915Y142951
X49911Y145034
X55677Y145136
X54254Y147320
X52578Y149606
X50902Y147726
X50800Y143231
X58445Y142443
X60655Y150419
X58979Y146964
X63754Y144424
X59182Y150165
X57556Y140056
X63144Y140970
X62941Y147828
X60706Y145567
X62179Y139903
X61214Y139090
X60706Y140005
X63043Y142951
X58039Y145034
X63805Y145136
X62382Y147320
X60706Y149606
X59030Y147726
X58928Y143231
X37998Y88646
X1549Y5537
X3759Y13513
X2083Y10058
X6858Y7518
X2286Y13259
X660Y3150
X6248Y4064
X6045Y10922
X3810Y8661
X5283Y2997
X4318Y2184
X3810Y3099
X6147Y6045
X1143Y8128
X6909Y8230
X5486Y10414
X3810Y12700
X2134Y10820
X2032Y6325
X9677Y5537
X11887Y13513
X10211Y10058
X14986Y7518
X10414Y13259
X8788Y3150
X14376Y4064
X14173Y10922
X11938Y8661
X13411Y2997
X12446Y2184
X11938Y3099
X14275Y6045
X9271Y8128
X15037Y8230
X13614Y10414
X11938Y12700
X10262Y10820
X10160Y6325
X17805Y5537
X20015Y13513
X18339Y10058
X23114Y7518
X18542Y13259
X16916Y3150
X22504Y4064
X22301Y10922
X20066Y8661
X21539Y2997
X20574Y2184
X20066Y3099
X22403Y6045
X17399Y8128
X23165Y8230
X21742Y10414
X20066Y12700
X18390Y10820
X18288Y6325
X25933Y5537
X28143Y13513
X26467Y10058
X31242Y7518
X26670Y13259
X25044Y3150
X30632Y4064
X30429Y10922
X28194Y8661
X29667Y2997
X28702Y2184
X28194Y3099
X30531Y6045
X25527Y8128
X31293Y8230
X29870Y10414
X28194Y12700
X26518Y10820
X26416Y6325
X34061Y5537
X36271Y13513
X34595Y10058
X39370Y7518
X34798Y13259
X33172Y3150
X38760Y4064
X38557Y10922
X36322Y8661
X37795Y2997
X36830Y2184
X36322Y3099
X38659Y6045
X33655Y8128
X39421Y8230
X37998Y10414
X36322Y12700
X34646Y10820
X34544Y6325
X42189Y5537
X44399Y13513
X42723Y10058
X47498Y7518
X42926Y13259
X41300Y3150
X46888Y4064
X46685Y10922
X44450Y8661
X45923Y2997
X44958Y2184
X44450Y3099
X46787Y6045
X41783Y8128
X47549Y8230
X46126Y10414
X44450Y12700
X42774Y10820
X42672Y6325
X50317Y5537
X52527Y13513
X50851Y10058
X55626Y7518
X51054Y13259
X49428Y3150
X55016Y4064
X54813Y10922
X52578Y8661
X54051Y2997
X53086Y2184
X52578Y3099
X54915Y6045
X49911Y8128
X55677Y8230
X54254Y10414
X52578Y12700
X50902Y10820
X50800Y6325
X58445Y5537
X60655Y13513
X58979Y10058
X63754Y7518
X59182Y13259
X57556Y3150
X63144Y4064
X62941Y10922
X60706Y8661
X62179Y2997
X61214Y2184
X60706Y3099
X63043Y6045
X58039Y8128
X63805Y8230
X62382Y10414
X60706Y12700
X59030Y10820
X58928Y6325
X1549Y25095
X3759Y33071
X63754Y124866
T4
X28169Y88392
X20041Y88392
X11913Y88392
X3785Y88392
X60681Y68834
X52553Y68834
X44425Y68834
X44425Y88392
X36297Y68834
X28169Y68834
X20041Y68834
X11913Y68834
X3785Y68834
X60681Y49276
X52553Y49276
X44425Y49276
X36297Y49276
X28169Y49276
X20041Y49276
X11913Y49276
X3785Y49276
X60681Y29718
X52553Y29718
X44425Y29718
X36297Y29718
X28169Y29718
X20041Y29718
X11913Y29718
X3785Y29718
X60681Y10160
X52553Y10160
X44425Y10160
X36297Y10160
X28169Y10160
X20041Y10160
X11913Y10160
X3785Y10160
X60681Y107950
X52553Y107950
X60681Y88392
X44425Y147066
X52553Y88392
X28169Y127508
X20041Y107950
X11913Y127508
X36297Y107950
X36297Y147066
X11913Y107950
X36297Y127508
X28169Y107950
X3785Y107950
X28169Y147066
X36297Y88392
X60681Y147066
X3785Y127508
X44425Y127508
X20041Y147066
X44425Y107950
X20041Y127508
X11913Y147066
X52553Y127508
X52553Y147066
X3785Y147066
X60681Y127508
M30